<?xml version="1.0" encoding="utf-8"?>
<!-- Generator: Adobe Illustrator 26.3.1, SVG Export Plug-In . SVG Version: 6.00 Build 0)  -->
<svg version="1.1" id="Camada_1" xmlns="http://www.w3.org/2000/svg" xmlns:xlink="http://www.w3.org/1999/xlink" x="0px" y="0px"
	 viewBox="0 0 32 32" style="enable-background:new 0 0 32 32;" xml:space="preserve">
<style type="text/css">
	.st0{fill:url(#SVGID_1_);}
	.st1{fill:url(#SVGID_00000075160644427714183210000017274709690303668396_);}
	.st2{fill:url(#SVGID_00000110466655795534391570000012527320595465784987_);}
	.st3{fill:url(#SVGID_00000120541441715029102840000013757602248690499746_);}
	.st4{fill:url(#SVGID_00000173862314202210819980000008437749049503043472_);}
	.st5{fill:url(#SVGID_00000052819909788160227860000014686976733945382290_);}
	.st6{fill:url(#SVGID_00000052103993449317181130000003187296633657392275_);}
	.st7{fill:url(#SVGID_00000001636230291311125730000000333982387769748869_);}
	.st8{fill:#666666;}
	.st9{fill:url(#SVGID_00000008120679347708223870000005915625186999237810_);}
	.st10{fill:url(#SVGID_00000018936362469113512130000004564558999753961116_);}
	.st11{fill:url(#SVGID_00000007429414006037134520000017478408379132959657_);}
	.st12{fill:url(#SVGID_00000134232811002599771900000017927920417540760995_);}
	.st13{fill:#333333;}
	.st14{fill:#121212;}
	.st15{fill:url(#SVGID_00000069383528537476777380000002278124926440869016_);}
	.st16{fill:url(#SVGID_00000018197735494419012530000005472463654797010817_);}
	.st17{fill:url(#SVGID_00000013190647590132715790000016780014818648902076_);}
	.st18{fill:url(#SVGID_00000089545655828564118150000011655767054680465335_);}
	.st19{fill:url(#SVGID_00000174582158978452225280000017618796182440086951_);}
	.st20{fill:url(#SVGID_00000057113271719782049120000016633823827063400083_);}
	.st21{fill:url(#SVGID_00000120557963980473607570000000651310728140891570_);}
	.st22{fill:url(#SVGID_00000125573858911884505320000004366843398796651699_);}
	.st23{opacity:0.2;}
	.st24{fill:url(#SVGID_00000108276876196458812110000002840002415339794860_);}
	.st25{clip-path:url(#SVGID_00000152957971382351059340000011308837724424985268_);}
	.st26{fill:url(#SVGID_00000006676087406475845110000004303595012946720956_);}
	.st27{fill:url(#SVGID_00000060025128850603961470000004476088100279828138_);}
	.st28{fill:#F4F3F4;}
	.st29{fill:url(#SVGID_00000169544389827074734430000004307032631995798189_);}
	.st30{fill:url(#SVGID_00000106129060835838987540000013723419116405029050_);}
	.st31{fill:#EBEBEB;}
	.st32{fill:url(#SVGID_00000167362000231337938900000002738553756952222086_);}
	.st33{fill:url(#SVGID_00000115473795709668479410000006051808384489593506_);}
</style>
<g>
	<g>
		<linearGradient id="SVGID_1_" gradientUnits="userSpaceOnUse" x1="8.1272" y1="12.3558" x2="5.4327" y2="26.1624">
			<stop  offset="0" style="stop-color:#030405"/>
			<stop  offset="8.057365e-02" style="stop-color:#070809"/>
			<stop  offset="0.2026" style="stop-color:#151618"/>
			<stop  offset="0.3501" style="stop-color:#2A2A2C"/>
			<stop  offset="0.4116" style="stop-color:#353535"/>
			<stop  offset="0.4745" style="stop-color:#414141"/>
			<stop  offset="0.6215" style="stop-color:#5C5C5C"/>
			<stop  offset="0.6961" style="stop-color:#676767"/>
			<stop  offset="0.7323" style="stop-color:#616262"/>
			<stop  offset="0.7882" style="stop-color:#515254"/>
			<stop  offset="0.8569" style="stop-color:#3A3C3F"/>
			<stop  offset="0.935" style="stop-color:#1D1F23"/>
			<stop  offset="1" style="stop-color:#030405"/>
		</linearGradient>
		<path class="st0" d="M8.5,26.3l-1.2-4.9c-0.2-1-0.3-2-0.2-2.9l0.7-6.1H5l-0.5,6.1c-0.1,1,0,2,0.2,2.9l1.2,4.9H8.5L8.5,26.3z
			 M6.5,19.1c0,0.2-0.1,0.3-0.3,0.4c-0.1,0.1-0.3,0.2-0.5,0.1c-0.2,0-0.4-0.1-0.5-0.2C5.1,19.3,5,19.2,5,19l0.3-2.5l0.3-2.5
			c0-0.2,0.2-0.5,0.6-0.5c0.2,0,0.4,0.1,0.5,0.2c0.1,0.1,0.2,0.3,0.2,0.4l-0.1,2.5L6.5,19.1z"/>
	</g>
	<g>
		
			<linearGradient id="SVGID_00000124881899685471381010000016106010933408226491_" gradientUnits="userSpaceOnUse" x1="8.3456" y1="12.3758" x2="5.6511" y2="26.1824">
			<stop  offset="0" style="stop-color:#030405"/>
			<stop  offset="6.504812e-02" style="stop-color:#1D1F23"/>
			<stop  offset="0.1431" style="stop-color:#3A3C3F"/>
			<stop  offset="0.2118" style="stop-color:#515254"/>
			<stop  offset="0.2677" style="stop-color:#616262"/>
			<stop  offset="0.3039" style="stop-color:#676767"/>
			<stop  offset="0.3785" style="stop-color:#5C5C5C"/>
			<stop  offset="0.5255" style="stop-color:#414141"/>
			<stop  offset="0.5884" style="stop-color:#353535"/>
			<stop  offset="0.6499" style="stop-color:#2A2A2C"/>
			<stop  offset="0.7974" style="stop-color:#151618"/>
			<stop  offset="0.9194" style="stop-color:#070809"/>
			<stop  offset="1" style="stop-color:#030405"/>
		</linearGradient>
		<path style="fill:url(#SVGID_00000124881899685471381010000016106010933408226491_);" d="M8.6,26.3l-1.2-4.9c-0.2-1-0.3-2-0.2-2.9
			l0.7-6.1H5.3l-0.7,6.1c-0.1,1,0,2,0.2,2.9l1.2,4.9H8.6L8.6,26.3z M6.6,19.1c0,0.2-0.1,0.3-0.3,0.4c-0.1,0.1-0.3,0.2-0.5,0.1
			c-0.2,0-0.4-0.1-0.5-0.2c-0.1-0.1-0.2-0.3-0.2-0.4l0.3-2.5l0.3-2.5c0-0.2,0.1-0.3,0.3-0.4c0.1-0.1,0.3-0.2,0.5-0.1
			c0.2,0,0.4,0.1,0.5,0.2c0.1,0.1,0.2,0.3,0.2,0.4l-0.3,2.5L6.6,19.1z"/>
	</g>
	<image style="overflow:visible;" width="4" height="16" xlink:href="38AA2D71.png"  transform="matrix(1 0 0 1 5 11)">
	</image>
	<image style="overflow:visible;" width="3" height="16" xlink:href="38AA2D73.png"  transform="matrix(1 0 0 1 25 8)">
	</image>
	<g>
		<g>
			<g>
				
					<linearGradient id="SVGID_00000066502053888182113940000002464211527537241487_" gradientUnits="userSpaceOnUse" x1="4.8121" y1="24.3807" x2="8.3999" y2="30.3463">
					<stop  offset="2.803750e-02" style="stop-color:#030405"/>
					<stop  offset="7.643961e-02" style="stop-color:#1D1F23"/>
					<stop  offset="0.1345" style="stop-color:#3A3C3F"/>
					<stop  offset="0.1856" style="stop-color:#515254"/>
					<stop  offset="0.2272" style="stop-color:#616262"/>
					<stop  offset="0.2541" style="stop-color:#676767"/>
					<stop  offset="0.3128" style="stop-color:#5C5C5C"/>
					<stop  offset="0.4285" style="stop-color:#414141"/>
					<stop  offset="0.4779" style="stop-color:#353535"/>
					<stop  offset="0.5559" style="stop-color:#2A2A2C"/>
					<stop  offset="0.743" style="stop-color:#151618"/>
					<stop  offset="0.8978" style="stop-color:#070809"/>
					<stop  offset="1" style="stop-color:#030405"/>
				</linearGradient>
				<path style="fill:url(#SVGID_00000066502053888182113940000002464211527537241487_);" d="M4.7,23.4c-0.8,0.9-0.6,2.8,0.9,4.6
					c1.5,1.7,2.8,2.1,4.1,2.1L4.7,23.4z"/>
				<path d="M4.7,23.4c-0.2,0.3-0.4,0.6-0.4,1c0,1,0.4,2.3,1.5,3.5c1,1.1,1.9,1.7,2.8,2c0.4,0.1,0.8,0.1,1.2,0.1L4.7,23.4z"/>
				
					<linearGradient id="SVGID_00000091724311446839438440000011258192262628216754_" gradientUnits="userSpaceOnUse" x1="4.7086" y1="23.8122" x2="8.9213" y2="30.561">
					<stop  offset="0" style="stop-color:#030405"/>
					<stop  offset="1.888729e-02" style="stop-color:#111215"/>
					<stop  offset="5.877808e-02" style="stop-color:#2A2C2F"/>
					<stop  offset="9.913754e-02" style="stop-color:#404144"/>
					<stop  offset="0.1394" style="stop-color:#525355"/>
					<stop  offset="0.1796" style="stop-color:#616162"/>
					<stop  offset="0.2197" style="stop-color:#6A6A6A"/>
					<stop  offset="0.2597" style="stop-color:#6D6D6D"/>
					<stop  offset="0.4489" style="stop-color:#444548"/>
					<stop  offset="0.628" style="stop-color:#27292C"/>
					<stop  offset="0.7853" style="stop-color:#131518"/>
					<stop  offset="0.9146" style="stop-color:#060809"/>
					<stop  offset="1" style="stop-color:#030405"/>
				</linearGradient>
				<path style="fill:url(#SVGID_00000091724311446839438440000011258192262628216754_);" d="M4.8,22.9c-0.9,1-0.7,3,1,5
					c1.6,1.8,3,2.3,4.5,2.3L4.8,22.9z"/>
				<path d="M4.5,23.4c-0.1,1.2,0.3,2.7,1.6,4.3c1.3,1.6,2.5,2.3,3.6,2.5c0.2,0,0.4,0,0.6,0l-5.5-7.3C4.7,23.1,4.6,23.3,4.5,23.4z"
					/>
				
					<linearGradient id="SVGID_00000034784288788038869600000006565901983522010758_" gradientUnits="userSpaceOnUse" x1="6.1336" y1="21.541" x2="11.0621" y2="30.7045">
					<stop  offset="0" style="stop-color:#030405"/>
					<stop  offset="1.888729e-02" style="stop-color:#111215"/>
					<stop  offset="5.877808e-02" style="stop-color:#2A2C2F"/>
					<stop  offset="9.913754e-02" style="stop-color:#404144"/>
					<stop  offset="0.1394" style="stop-color:#525355"/>
					<stop  offset="0.1796" style="stop-color:#616162"/>
					<stop  offset="0.2197" style="stop-color:#6A6A6A"/>
					<stop  offset="0.2597" style="stop-color:#6D6D6D"/>
					<stop  offset="0.4489" style="stop-color:#444548"/>
					<stop  offset="0.628" style="stop-color:#27292C"/>
					<stop  offset="0.7853" style="stop-color:#131518"/>
					<stop  offset="0.9146" style="stop-color:#060809"/>
					<stop  offset="1" style="stop-color:#030405"/>
				</linearGradient>
				<path style="fill:url(#SVGID_00000034784288788038869600000006565901983522010758_);" d="M6.4,20.5c-0.3,0.4-1.3,1.5-1.4,1.6
					c-0.9,1.1-0.7,3.4,1.1,5.5c1.7,2,3.1,2.6,4.7,2.6c0.2,0,2.8-0.3,3.2-0.5L6.4,20.5z"/>
				
					<linearGradient id="SVGID_00000000943737228257463840000012873065900670603161_" gradientUnits="userSpaceOnUse" x1="5.9383" y1="20.9651" x2="10.3863" y2="30.5242">
					<stop  offset="0" style="stop-color:#8B8B8B"/>
					<stop  offset="8.794311e-03" style="stop-color:#AEADAD"/>
					<stop  offset="1.799815e-02" style="stop-color:#CECDCD"/>
					<stop  offset="2.585232e-02" style="stop-color:#E3E2E2"/>
					<stop  offset="3.137250e-02" style="stop-color:#EAEAEA"/>
					<stop  offset="4.257589e-02" style="stop-color:#E7E7E7"/>
					<stop  offset="4.976000e-02" style="stop-color:#DFDEDE"/>
					<stop  offset="5.581528e-02" style="stop-color:#CFCECE"/>
					<stop  offset="6.123832e-02" style="stop-color:#BBB9B9"/>
					<stop  offset="6.620101e-02" style="stop-color:#A0A0A0"/>
					<stop  offset="6.666670e-02" style="stop-color:#9D9D9D"/>
					<stop  offset="9.803919e-02" style="stop-color:#8B8B8B"/>
					<stop  offset="9.977701e-02" style="stop-color:#89898A"/>
					<stop  offset="0.1137" style="stop-color:#828383"/>
					<stop  offset="0.1177" style="stop-color:#868787"/>
					<stop  offset="0.1622" style="stop-color:#B0B0B0"/>
					<stop  offset="0.1977" style="stop-color:#CCCCCC"/>
					<stop  offset="0.2196" style="stop-color:#D6D7D7"/>
					<stop  offset="0.2227" style="stop-color:#D9D9D9"/>
					<stop  offset="0.2402" style="stop-color:#E6E6E6"/>
					<stop  offset="0.2549" style="stop-color:#EAEAEA"/>
					<stop  offset="0.2786" style="stop-color:#E7E7E7"/>
					<stop  offset="0.2937" style="stop-color:#DFDEDE"/>
					<stop  offset="0.3065" style="stop-color:#CFCECE"/>
					<stop  offset="0.318" style="stop-color:#BBB9B9"/>
					<stop  offset="0.3284" style="stop-color:#A0A0A0"/>
					<stop  offset="0.3294" style="stop-color:#9D9D9D"/>
					<stop  offset="0.3647" style="stop-color:#484848"/>
					<stop  offset="0.5255" style="stop-color:#2E2E2E"/>
					<stop  offset="0.5655" style="stop-color:#303030"/>
					<stop  offset="0.5877" style="stop-color:#373636"/>
					<stop  offset="0.6056" style="stop-color:#424141"/>
					<stop  offset="0.6211" style="stop-color:#545152"/>
					<stop  offset="0.6351" style="stop-color:#6D6A6A"/>
					<stop  offset="0.6481" style="stop-color:#8F8C8D"/>
					<stop  offset="0.66" style="stop-color:#BCBABB"/>
					<stop  offset="0.6706" style="stop-color:#F4F3F4"/>
					<stop  offset="0.7961" style="stop-color:#F4F3F4"/>
					<stop  offset="0.8227" style="stop-color:#BBB9B9"/>
					<stop  offset="0.8573" style="stop-color:#828080"/>
					<stop  offset="0.8835" style="stop-color:#636262"/>
					<stop  offset="0.898" style="stop-color:#585858"/>
					<stop  offset="0.9373" style="stop-color:#3F3F3F"/>
					<stop  offset="1" style="stop-color:#2A292A"/>
				</linearGradient>
				<path style="fill:url(#SVGID_00000000943737228257463840000012873065900670603161_);" d="M6.6,20.4c-1.4,0.9-1.3,3.4,0.1,6
					c1.4,2.4,3.6,3.9,5.2,3.8L6.6,20.4z"/>
				
					<linearGradient id="SVGID_00000116936894902742717630000012164022050773938587_" gradientUnits="userSpaceOnUse" x1="5.9383" y1="20.9651" x2="10.3863" y2="30.5242">
					<stop  offset="0" style="stop-color:#8B8B8B"/>
					<stop  offset="8.794311e-03" style="stop-color:#AEADAD"/>
					<stop  offset="1.799815e-02" style="stop-color:#CECDCD"/>
					<stop  offset="2.585232e-02" style="stop-color:#E3E2E2"/>
					<stop  offset="3.137250e-02" style="stop-color:#EAEAEA"/>
					<stop  offset="4.257589e-02" style="stop-color:#E7E7E7"/>
					<stop  offset="4.976000e-02" style="stop-color:#DFDEDE"/>
					<stop  offset="5.581528e-02" style="stop-color:#CFCECE"/>
					<stop  offset="6.123832e-02" style="stop-color:#BBB9B9"/>
					<stop  offset="6.620101e-02" style="stop-color:#A0A0A0"/>
					<stop  offset="6.666670e-02" style="stop-color:#9D9D9D"/>
					<stop  offset="9.803919e-02" style="stop-color:#8B8B8B"/>
					<stop  offset="9.977701e-02" style="stop-color:#89898A"/>
					<stop  offset="0.1137" style="stop-color:#828383"/>
					<stop  offset="0.1177" style="stop-color:#868787"/>
					<stop  offset="0.1622" style="stop-color:#B0B0B0"/>
					<stop  offset="0.1977" style="stop-color:#CCCCCC"/>
					<stop  offset="0.2196" style="stop-color:#D6D7D7"/>
					<stop  offset="0.2227" style="stop-color:#D9D9D9"/>
					<stop  offset="0.2402" style="stop-color:#E6E6E6"/>
					<stop  offset="0.2549" style="stop-color:#EAEAEA"/>
					<stop  offset="0.2786" style="stop-color:#E7E7E7"/>
					<stop  offset="0.2937" style="stop-color:#DFDEDE"/>
					<stop  offset="0.3065" style="stop-color:#CFCECE"/>
					<stop  offset="0.318" style="stop-color:#BBB9B9"/>
					<stop  offset="0.3284" style="stop-color:#A0A0A0"/>
					<stop  offset="0.3294" style="stop-color:#9D9D9D"/>
					<stop  offset="0.3647" style="stop-color:#484848"/>
					<stop  offset="0.5255" style="stop-color:#2E2E2E"/>
					<stop  offset="0.5655" style="stop-color:#303030"/>
					<stop  offset="0.5877" style="stop-color:#373636"/>
					<stop  offset="0.6056" style="stop-color:#424141"/>
					<stop  offset="0.6211" style="stop-color:#545152"/>
					<stop  offset="0.6351" style="stop-color:#6D6A6A"/>
					<stop  offset="0.6481" style="stop-color:#8F8C8D"/>
					<stop  offset="0.66" style="stop-color:#BCBABB"/>
					<stop  offset="0.6706" style="stop-color:#F4F3F4"/>
					<stop  offset="0.7961" style="stop-color:#F4F3F4"/>
					<stop  offset="0.8227" style="stop-color:#BBB9B9"/>
					<stop  offset="0.8573" style="stop-color:#828080"/>
					<stop  offset="0.8835" style="stop-color:#636262"/>
					<stop  offset="0.898" style="stop-color:#585858"/>
					<stop  offset="0.9373" style="stop-color:#3F3F3F"/>
					<stop  offset="1" style="stop-color:#2A292A"/>
				</linearGradient>
				<path style="fill:url(#SVGID_00000116936894902742717630000012164022050773938587_);" d="M6.6,20.4c-1.4,0.9-1.3,3.4,0.1,6
					c1.4,2.4,3.6,3.9,5.2,3.8L6.6,20.4z"/>
				
					<linearGradient id="SVGID_00000126281607786279085970000013954874299278035869_" gradientUnits="userSpaceOnUse" x1="5.9383" y1="20.9651" x2="10.3863" y2="30.5242">
					<stop  offset="0.2748" style="stop-color:#F4F3F4"/>
					<stop  offset="0.373" style="stop-color:#E2E1E2"/>
					<stop  offset="0.5505" style="stop-color:#B8B5B6"/>
					<stop  offset="0.7849" style="stop-color:#7C7979"/>
					<stop  offset="1" style="stop-color:#484848"/>
				</linearGradient>
				<path style="fill:url(#SVGID_00000126281607786279085970000013954874299278035869_);" d="M6.6,20.4c-1.4,0.9-1.3,3.4,0.1,6
					c1.4,2.4,3.6,3.9,5.2,3.8L6.6,20.4z"/>
				<path class="st8" d="M6.8,26.3c-1.5-2.5-1.5-5-0.1-5.9l0,0C5.2,21.3,5.3,23.8,6.8,26.3c1.3,2.3,3.4,3.8,5,3.8
					C10.2,30.1,8.1,28.6,6.8,26.3z"/>
				<image style="overflow:visible;" width="10" height="13" xlink:href="38AA2D76.png"  transform="matrix(1 0 0 1 5 18)">
				</image>
				<image style="overflow:visible;" width="10" height="12" xlink:href="38AA2D77.png"  transform="matrix(1 0 0 1 7 18)">
				</image>
				<g>
					<path d="M14.4,23.2c0.9,1.5,0.9,3-0.1,3.4c-0.9,0.4-2.4-0.5-3.2-2c-0.9-1.5-0.9-3,0.1-3.4C12,20.8,13.5,21.7,14.4,23.2z"/>
					<g>
						<defs>
							<path id="SVGID_00000140710077749816452020000008585019803629111464_" d="M14.4,23.2c0.9,1.5,0.9,3-0.1,3.4
								c-0.9,0.4-2.4-0.5-3.2-2c-0.9-1.5-0.9-3,0.1-3.4C12,20.8,13.5,21.7,14.4,23.2z"/>
						</defs>
						<use xlink:href="#SVGID_00000140710077749816452020000008585019803629111464_"  style="overflow:visible;fill:#060607;"/>
						<clipPath id="SVGID_00000115501201119549700810000009232278617273217427_">
							<use xlink:href="#SVGID_00000140710077749816452020000008585019803629111464_"  style="overflow:visible;"/>
						</clipPath>
						<g style="clip-path:url(#SVGID_00000115501201119549700810000009232278617273217427_);">
							<image style="overflow:visible;" width="6" height="6" xlink:href="38AA2D72.png"  transform="matrix(1 0 0 1 8 21)">
							</image>
						</g>
					</g>
				</g>
			</g>
		</g>
		<g>
			<image style="overflow:visible;" width="14" height="13" xlink:href="38AA2D7D.png"  transform="matrix(1 0 0 1 13 18)">
			</image>
			<image style="overflow:visible;" width="14" height="13" xlink:href="38AA2D7E.png"  transform="matrix(1 0 0 1 14 18)">
			</image>
			<g>
				
					<linearGradient id="SVGID_00000043450058210892807100000010673934525351534465_" gradientUnits="userSpaceOnUse" x1="16.3167" y1="29.5891" x2="26.5823" y2="21.015">
					<stop  offset="0" style="stop-color:#8B8B8B"/>
					<stop  offset="8.794311e-03" style="stop-color:#AEADAD"/>
					<stop  offset="1.799815e-02" style="stop-color:#CECDCD"/>
					<stop  offset="2.585232e-02" style="stop-color:#E3E2E2"/>
					<stop  offset="3.137250e-02" style="stop-color:#EAEAEA"/>
					<stop  offset="4.257589e-02" style="stop-color:#E7E7E7"/>
					<stop  offset="4.976000e-02" style="stop-color:#DFDEDE"/>
					<stop  offset="5.581528e-02" style="stop-color:#CFCECE"/>
					<stop  offset="6.123832e-02" style="stop-color:#BBB9B9"/>
					<stop  offset="6.620101e-02" style="stop-color:#A0A0A0"/>
					<stop  offset="6.666670e-02" style="stop-color:#9D9D9D"/>
					<stop  offset="9.803919e-02" style="stop-color:#8B8B8B"/>
					<stop  offset="9.977701e-02" style="stop-color:#89898A"/>
					<stop  offset="0.1137" style="stop-color:#828383"/>
					<stop  offset="0.1213" style="stop-color:#747474"/>
					<stop  offset="0.1381" style="stop-color:#585858"/>
					<stop  offset="0.1515" style="stop-color:#484848"/>
					<stop  offset="0.1597" style="stop-color:#434342"/>
					<stop  offset="0.1819" style="stop-color:#494948"/>
					<stop  offset="0.2147" style="stop-color:#5D5B5B"/>
					<stop  offset="0.2541" style="stop-color:#807D7D"/>
					<stop  offset="0.2983" style="stop-color:#B9B6B6"/>
					<stop  offset="0.3284" style="stop-color:#EAEAEA"/>
					<stop  offset="0.354" style="stop-color:#E7E7E7"/>
					<stop  offset="0.3704" style="stop-color:#DFDEDE"/>
					<stop  offset="0.3842" style="stop-color:#CFCECE"/>
					<stop  offset="0.3966" style="stop-color:#BBB9B9"/>
					<stop  offset="0.4079" style="stop-color:#A0A0A0"/>
					<stop  offset="0.4089" style="stop-color:#9D9D9D"/>
					<stop  offset="0.4396" style="stop-color:#848383"/>
					<stop  offset="0.5092" style="stop-color:#535252"/>
					<stop  offset="0.56" style="stop-color:#383838"/>
					<stop  offset="0.5862" style="stop-color:#2E2E2E"/>
					<stop  offset="0.6054" style="stop-color:#313132"/>
					<stop  offset="0.6259" style="stop-color:#3C3B3B"/>
					<stop  offset="0.647" style="stop-color:#4F4D4D"/>
					<stop  offset="0.6684" style="stop-color:#6C6969"/>
					<stop  offset="0.6902" style="stop-color:#979394"/>
					<stop  offset="0.7119" style="stop-color:#D2D0D0"/>
					<stop  offset="0.7217" style="stop-color:#F4F3F4"/>
					<stop  offset="0.8887" style="stop-color:#F4F3F4"/>
					<stop  offset="0.9178" style="stop-color:#BBB9B9"/>
					<stop  offset="0.9555" style="stop-color:#828080"/>
					<stop  offset="0.9841" style="stop-color:#636262"/>
					<stop  offset="1" style="stop-color:#585858"/>
				</linearGradient>
				<path style="fill:url(#SVGID_00000043450058210892807100000010673934525351534465_);" d="M25.4,28.4c-2.7,2.5-6.7,3.2-8.9,1.6
					c-2.2-1.6-1.9-5,0.8-7.5c2.7-2.5,6.7-3.2,8.9-1.6C28.4,22.5,28.1,25.8,25.4,28.4z"/>
				
					<linearGradient id="SVGID_00000088819507892198969930000016207402099290941093_" gradientUnits="userSpaceOnUse" x1="16.3167" y1="29.5891" x2="26.5823" y2="21.015">
					<stop  offset="0.2236" style="stop-color:#484848"/>
					<stop  offset="0.228" style="stop-color:#4A494A"/>
					<stop  offset="0.353" style="stop-color:#888585"/>
					<stop  offset="0.4589" style="stop-color:#BFBCBD"/>
					<stop  offset="0.5405" style="stop-color:#E5E4E4"/>
					<stop  offset="0.5879" style="stop-color:#F4F3F4"/>
				</linearGradient>
				<path style="fill:url(#SVGID_00000088819507892198969930000016207402099290941093_);" d="M25.4,28.4c-2.7,2.5-6.7,3.2-8.9,1.6
					c-2.2-1.6-1.9-5,0.8-7.5c2.7-2.5,6.7-3.2,8.9-1.6C28.4,22.5,28.1,25.8,25.4,28.4z"/>
				<path class="st8" d="M26.2,20.9c-2.2-1.6-6.3-0.9-8.9,1.6c-2.7,2.5-3,5.9-0.8,7.5c2.2,1.6,6.3,0.9,8.9-1.6
					C28.1,25.8,28.4,22.5,26.2,20.9z M25.4,28.3c-1.7,1.5-3.9,2.5-5.9,2.5c-1.2,0-2.2-0.3-3-0.9c-0.9-0.6-1.4-1.5-1.5-2.6
					c-0.1-1.6,0.7-3.4,2.3-4.8c1.7-1.5,3.9-2.5,5.9-2.5c1.2,0,2.2,0.3,3,0.9c0.9,0.6,1.4,1.5,1.5,2.6C27.8,25.1,26.9,26.9,25.4,28.3
					z"/>
			</g>
			<g>
				
					<linearGradient id="SVGID_00000033346373741729110010000013384033467305122432_" gradientUnits="userSpaceOnUse" x1="44.7575" y1="11.7971" x2="31.9231" y2="17.9964" gradientTransform="matrix(0.9982 -6.050000e-02 6.050000e-02 0.9982 -17.5325 13.183)">
					<stop  offset="0" style="stop-color:#323333"/>
					<stop  offset="5.913013e-02" style="stop-color:#4A4B4B"/>
					<stop  offset="0.1271" style="stop-color:#5E5E5E"/>
					<stop  offset="0.1951" style="stop-color:#6A6A6A"/>
					<stop  offset="0.2629" style="stop-color:#6E6E6E"/>
					<stop  offset="0.4926" style="stop-color:#424242"/>
					<stop  offset="0.707" style="stop-color:#1F2021"/>
					<stop  offset="0.8835" style="stop-color:#0B0B0C"/>
					<stop  offset="1" style="stop-color:#030405"/>
				</linearGradient>
				<path style="fill:url(#SVGID_00000033346373741729110010000013384033467305122432_);" d="M26.3,28.1c-2.4,2.7-6.6,3.6-9.1,2.3
					c-2.5-1.2-2.5-4.4-0.2-7.1c2.4-2.7,6.3-3.8,8.8-2.6C28.3,22.1,28.7,25.5,26.3,28.1z"/>
				
					<linearGradient id="SVGID_00000047019480740813822920000008460649933187845272_" gradientUnits="userSpaceOnUse" x1="33.5234" y1="19.7684" x2="42.9473" y2="10.3306" gradientTransform="matrix(0.9982 -6.050000e-02 6.050000e-02 0.9982 -17.5325 13.183)">
					<stop  offset="0.1379" style="stop-color:#484848"/>
					<stop  offset="0.3121" style="stop-color:#7C7979"/>
					<stop  offset="0.502" style="stop-color:#B8B5B6"/>
					<stop  offset="0.6457" style="stop-color:#E2E1E2"/>
					<stop  offset="0.7252" style="stop-color:#F4F3F4"/>
				</linearGradient>
				<path style="fill:url(#SVGID_00000047019480740813822920000008460649933187845272_);" d="M26.3,28.1c-2.4,2.7-6.6,3.6-9.1,2.3
					c-2.5-1.2-2.5-4.4-0.2-7.1c2.4-2.7,6.3-3.8,8.8-2.6C28.3,22.1,28.7,25.5,26.3,28.1z"/>
				<path class="st8" d="M20.1,31c-0.4-0.1-0.8-0.2-1.1-0.4c-0.8-0.4-1.3-1-1.5-1.8c-0.3-1.3,0.2-2.9,1.5-4.2
					c1.4-1.6,3.4-2.6,5.4-2.7c0.8,0,1.6,0.1,2.2,0.4c0.7,0.4,1.2,1,1.4,1.7c0,0,0-0.1,0-0.1c-0.2-0.7-0.7-1.2-1.4-1.6
					c-0.5-0.3-1.2-0.4-1.9-0.4c-0.1,0-0.2,0-0.3,0c-1.9,0.1-4,1.1-5.4,2.7c-1.2,1.4-1.8,2.9-1.5,4.2c0.2,0.8,0.7,1.5,1.5,1.8
					c0.3,0.2,0.7,0.3,1,0.3C20,31,20,31,20.1,31z"/>
				<path class="st13" d="M19.8,31c-1,0-1.8-0.2-2.5-0.5c-0.9-0.5-1.6-1.2-1.8-2.2c-0.3-1.5,0.3-3.3,1.6-4.8
					c1.7-1.9,4.2-3.1,6.4-3.1c0.9,0,1.6,0.2,2.3,0.5c1,0.5,1.7,1.4,2,2.5c0,0.1,0.1,0.3,0.1,0.4c0,0,0,0.1,0,0.1
					c-0.1-1.3-0.9-2.4-2.1-3c-2.5-1.2-6.4-0.1-8.8,2.6c-2.4,2.7-2.3,5.8,0.2,7.1c0.8,0.4,1.7,0.6,2.7,0.6C19.8,31,19.8,31,19.8,31z"
					/>
			</g>
			<g>
				<path class="st14" d="M21.1,31c-0.8,0-1.6-0.1-2.2-0.4c-0.8-0.4-1.3-1-1.5-1.8c-0.3-1.3,0.2-2.9,1.5-4.2
					c1.4-1.6,3.4-2.6,5.4-2.7c0.8,0,1.6,0.1,2.2,0.4c0.8,0.4,1.3,1,1.5,1.8c0.3,1.3-0.2,2.9-1.5,4.2C25,29.9,23,31,21.1,31z"/>
				
					<linearGradient id="SVGID_00000146488556138861015330000017918693585870629820_" gradientUnits="userSpaceOnUse" x1="34.7016" y1="19.5635" x2="44.2225" y2="11.8473" gradientTransform="matrix(0.9982 -6.050000e-02 6.050000e-02 0.9982 -17.5325 13.183)">
					<stop  offset="0" style="stop-color:#030405"/>
					<stop  offset="0.117" style="stop-color:#0B0B0C"/>
					<stop  offset="0.2942" style="stop-color:#1F2021"/>
					<stop  offset="0.5096" style="stop-color:#424242"/>
					<stop  offset="0.7403" style="stop-color:#6E6E6E"/>
					<stop  offset="0.8216" style="stop-color:#636363"/>
					<stop  offset="0.9644" style="stop-color:#454647"/>
					<stop  offset="1" style="stop-color:#3D3E3F"/>
				</linearGradient>
				<path style="fill:url(#SVGID_00000146488556138861015330000017918693585870629820_);" d="M21.1,31.1c-0.8,0-1.6-0.1-2.2-0.4
					c-0.8-0.4-1.3-1-1.5-1.8c-0.3-1.3,0.2-2.9,1.5-4.2c1.4-1.6,3.5-2.6,5.4-2.7c0.8,0,1.6,0.1,2.2,0.4c0.8,0.4,1.3,1,1.5,1.8
					c0.3,1.3-0.2,2.9-1.5,4.2C25.1,30,23.1,31,21.1,31.1z"/>
				
					<linearGradient id="SVGID_00000049188037791193832210000011155591537116397245_" gradientUnits="userSpaceOnUse" x1="34.4676" y1="19.7456" x2="43.9968" y2="12.0372" gradientTransform="matrix(0.9982 -6.050000e-02 6.050000e-02 0.9982 -17.5325 13.183)">
					<stop  offset="0.1379" style="stop-color:#484848"/>
					<stop  offset="0.3121" style="stop-color:#7C7979"/>
					<stop  offset="0.502" style="stop-color:#B8B5B6"/>
					<stop  offset="0.6457" style="stop-color:#E2E1E2"/>
					<stop  offset="0.7252" style="stop-color:#F4F3F4"/>
				</linearGradient>
				<path style="fill:url(#SVGID_00000049188037791193832210000011155591537116397245_);" d="M21.1,31.1c-0.8,0-1.6-0.1-2.2-0.4
					c-0.8-0.4-1.3-1-1.5-1.8c-0.3-1.3,0.2-2.9,1.5-4.2c1.4-1.6,3.5-2.6,5.4-2.7c0.8,0,1.6,0.1,2.2,0.4c0.8,0.4,1.3,1,1.5,1.8
					c0.3,1.3-0.2,2.9-1.5,4.2C25.1,30,23.1,31,21.1,31.1z"/>
				<path class="st8" d="M21.8,30.9c-0.7,0-1.4-0.1-2-0.4c-0.7-0.3-1.2-0.9-1.3-1.6c-0.3-1.1,0.2-2.5,1.3-3.7
					c1.3-1.4,3.1-2.3,4.9-2.4c0.7,0,1.4,0.1,2,0.4c0.7,0.3,1.2,0.9,1.3,1.6c0,0.1,0,0.1,0,0.2c0-0.1,0-0.1,0-0.2c0,0,0,0,0,0
					c-0.2-0.7-0.6-1.3-1.4-1.6c-0.5-0.2-1.1-0.4-1.7-0.4c-0.1,0-0.2,0-0.2,0c-1.7,0.1-3.6,1-4.9,2.4c-1.1,1.2-1.6,2.6-1.3,3.8
					c0.2,0.7,0.6,1.3,1.4,1.6c0.5,0.2,1.1,0.4,1.7,0.4C21.6,30.9,21.7,30.9,21.8,30.9c0.3,0,0.6,0,1-0.1c0.1,0,0.2-0.1,0.3-0.1
					C22.6,30.8,22.2,30.9,21.8,30.9z"/>
				
					<linearGradient id="SVGID_00000117649773374526252940000001502819466794769556_" gradientUnits="userSpaceOnUse" x1="19.6088" y1="30.4124" x2="26.9485" y2="23.2474">
					<stop  offset="0" style="stop-color:#070808"/>
					<stop  offset="1" style="stop-color:#3F4040"/>
				</linearGradient>
				<path style="fill:url(#SVGID_00000117649773374526252940000001502819466794769556_);" d="M21.8,30.9c-0.7,0-1.4-0.1-2-0.4
					c-0.7-0.3-1.2-0.9-1.3-1.6c-0.3-1.1,0.2-2.5,1.3-3.7c1.3-1.4,3.1-2.3,4.9-2.4c0.7,0,1.4,0.1,2,0.4c0.7,0.3,1.2,0.9,1.3,1.6
					c0.3,1.1-0.2,2.5-1.3,3.7C25.4,29.9,23.5,30.8,21.8,30.9z"/>
			</g>
		</g>
	</g>
	
		<linearGradient id="SVGID_00000107547792992824154750000017949383518921450120_" gradientUnits="userSpaceOnUse" x1="27.7068" y1="11.5062" x2="24.0782" y2="30.0988">
		<stop  offset="0" style="stop-color:#030405"/>
		<stop  offset="8.057365e-02" style="stop-color:#070809"/>
		<stop  offset="0.2026" style="stop-color:#151618"/>
		<stop  offset="0.3501" style="stop-color:#2A2A2C"/>
		<stop  offset="0.4116" style="stop-color:#353535"/>
		<stop  offset="0.4745" style="stop-color:#414141"/>
		<stop  offset="0.6215" style="stop-color:#5C5C5C"/>
		<stop  offset="0.6961" style="stop-color:#676767"/>
		<stop  offset="0.7323" style="stop-color:#616262"/>
		<stop  offset="0.7882" style="stop-color:#515254"/>
		<stop  offset="0.8569" style="stop-color:#3A3C3F"/>
		<stop  offset="0.935" style="stop-color:#1D1F23"/>
		<stop  offset="1" style="stop-color:#030405"/>
	</linearGradient>
	<path style="fill:url(#SVGID_00000107547792992824154750000017949383518921450120_);" d="M29.3,18.2l-0.5-6.7l-3.7-0.1l0.7,6.6
		c0.1,2-0.4,3.9-1.5,5.7l-3.1,4.9c-0.5,0.7,0.2,1.6,1.1,1.6l1,0c0.5,0,0.9-0.2,1.2-0.6l3.5-6C29,21.8,29.4,20,29.3,18.2z M26.9,24.2
		l-3,4.8c-0.2,0.3-0.7,0.5-1.1,0.3c-0.4-0.2-0.5-0.6-0.3-0.9l3-4.8c0.2-0.3,0.7-0.5,1.1-0.3C26.9,23.4,27.1,23.8,26.9,24.2z
		 M27.8,19c-0.4,0-0.8-0.3-0.8-0.6l-0.4-5.4c0-0.4,0.2-0.6,0.6-0.7c0.4,0,0.7,0.2,0.8,0.6l0.6,5.4C28.6,18.6,28.2,19,27.8,19z"/>
	<g>
		
			<linearGradient id="SVGID_00000127002305469872265080000001516264500465387410_" gradientUnits="userSpaceOnUse" x1="27.8386" y1="11.5062" x2="24.21" y2="30.0988">
			<stop  offset="0" style="stop-color:#030405"/>
			<stop  offset="6.504812e-02" style="stop-color:#1D1F23"/>
			<stop  offset="0.1431" style="stop-color:#3A3C3F"/>
			<stop  offset="0.2118" style="stop-color:#515254"/>
			<stop  offset="0.2677" style="stop-color:#616262"/>
			<stop  offset="0.3039" style="stop-color:#676767"/>
			<stop  offset="0.3785" style="stop-color:#5C5C5C"/>
			<stop  offset="0.5255" style="stop-color:#414141"/>
			<stop  offset="0.5884" style="stop-color:#353535"/>
			<stop  offset="0.6499" style="stop-color:#2A2A2C"/>
			<stop  offset="0.7974" style="stop-color:#151618"/>
			<stop  offset="0.9194" style="stop-color:#070809"/>
			<stop  offset="1" style="stop-color:#030405"/>
		</linearGradient>
		<path style="fill:url(#SVGID_00000127002305469872265080000001516264500465387410_);" d="M29.4,18.2L29,11.4l-3.5-0.1l0.5,6.6
			c0.1,2-0.4,3.9-1.5,5.7l-3.1,4.9c-0.5,0.7,0.2,1.6,1.1,1.6l1,0c0.5,0,0.9-0.2,1.2-0.6l3.5-6C29.1,21.8,29.6,20,29.4,18.2z
			 M27,24.2L24,29c-0.2,0.3-0.7,0.5-1.1,0.3c-0.4-0.2-0.5-0.6-0.3-0.9l3-4.8c0.2-0.3,0.7-0.5,1.1-0.3C27,23.4,27.2,23.8,27,24.2z
			 M27.9,19c-0.4,0-0.8-0.3-0.8-0.6l-0.4-5.4c0-0.4,0.3-0.7,0.7-0.7c0.4,0,0.8,0.3,0.8,0.6l0.4,5.4C28.7,18.6,28.4,19,27.9,19z"/>
	</g>
	<g>
		
			<linearGradient id="SVGID_00000172418460219893666170000001470717268102086017_" gradientUnits="userSpaceOnUse" x1="37.9372" y1="19.6164" x2="42.6513" y2="15.3101" gradientTransform="matrix(0.9983 -5.810000e-02 5.810000e-02 0.9983 -17.247 12.3267)">
			<stop  offset="0" style="stop-color:#2A292A"/>
			<stop  offset="6.274500e-02" style="stop-color:#3F3F3F"/>
			<stop  offset="0.102" style="stop-color:#585858"/>
			<stop  offset="0.1252" style="stop-color:#636262"/>
			<stop  offset="0.167" style="stop-color:#828080"/>
			<stop  offset="0.2221" style="stop-color:#BBB9B9"/>
			<stop  offset="0.2646" style="stop-color:#F4F3F4"/>
			<stop  offset="0.3294" style="stop-color:#F4F3F4"/>
			<stop  offset="0.34" style="stop-color:#BCBABB"/>
			<stop  offset="0.3519" style="stop-color:#8F8C8D"/>
			<stop  offset="0.3649" style="stop-color:#6D6A6A"/>
			<stop  offset="0.3789" style="stop-color:#545152"/>
			<stop  offset="0.3944" style="stop-color:#424141"/>
			<stop  offset="0.4123" style="stop-color:#373636"/>
			<stop  offset="0.4345" style="stop-color:#303030"/>
			<stop  offset="0.4745" style="stop-color:#2E2E2E"/>
			<stop  offset="0.6353" style="stop-color:#484848"/>
			<stop  offset="0.6706" style="stop-color:#9D9D9D"/>
			<stop  offset="0.6716" style="stop-color:#A0A0A0"/>
			<stop  offset="0.682" style="stop-color:#BBB9B9"/>
			<stop  offset="0.6935" style="stop-color:#CFCECE"/>
			<stop  offset="0.7063" style="stop-color:#DFDEDE"/>
			<stop  offset="0.7214" style="stop-color:#E7E7E7"/>
			<stop  offset="0.7451" style="stop-color:#EAEAEA"/>
			<stop  offset="0.7864" style="stop-color:#E6E6E6"/>
			<stop  offset="0.8355" style="stop-color:#D9D9D9"/>
			<stop  offset="0.8443" style="stop-color:#D6D7D7"/>
			<stop  offset="0.8622" style="stop-color:#CCCCCC"/>
			<stop  offset="0.8913" style="stop-color:#B0B0B0"/>
			<stop  offset="0.9277" style="stop-color:#868787"/>
			<stop  offset="0.931" style="stop-color:#828383"/>
			<stop  offset="0.9924" style="stop-color:#89898A"/>
			<stop  offset="1" style="stop-color:#8B8B8B"/>
		</linearGradient>
		<path style="fill:url(#SVGID_00000172418460219893666170000001470717268102086017_);" d="M23.2,29.9c-0.4,0-0.9,0-1.2-0.2
			c-0.4-0.2-0.7-0.5-0.8-1c-0.2-0.7,0.1-1.5,0.7-2.3c0.7-0.9,1.9-1.4,2.9-1.5c0.4,0,0.9,0,1.2,0.2c0.4,0.2,0.7,0.5,0.8,1
			c0.2,0.7-0.1,1.5-0.7,2.3C25.4,29.2,24.3,29.8,23.2,29.9z"/>
		
			<linearGradient id="SVGID_00000098904829644988675620000012492270151499987646_" gradientUnits="userSpaceOnUse" x1="26.4907" y1="25.1039" x2="21.513" y2="29.7135">
			<stop  offset="0" style="stop-color:#8B8B8B"/>
			<stop  offset="8.794311e-03" style="stop-color:#AEADAD"/>
			<stop  offset="1.799815e-02" style="stop-color:#CECDCD"/>
			<stop  offset="2.585232e-02" style="stop-color:#E3E2E2"/>
			<stop  offset="3.137250e-02" style="stop-color:#EAEAEA"/>
			<stop  offset="4.257589e-02" style="stop-color:#E7E7E7"/>
			<stop  offset="4.976000e-02" style="stop-color:#DFDEDE"/>
			<stop  offset="5.581528e-02" style="stop-color:#CFCECE"/>
			<stop  offset="6.123832e-02" style="stop-color:#BBB9B9"/>
			<stop  offset="6.620101e-02" style="stop-color:#A0A0A0"/>
			<stop  offset="6.666670e-02" style="stop-color:#9D9D9D"/>
			<stop  offset="9.803919e-02" style="stop-color:#8B8B8B"/>
			<stop  offset="9.977701e-02" style="stop-color:#89898A"/>
			<stop  offset="0.1137" style="stop-color:#828383"/>
			<stop  offset="0.1177" style="stop-color:#868787"/>
			<stop  offset="0.1622" style="stop-color:#B0B0B0"/>
			<stop  offset="0.1977" style="stop-color:#CCCCCC"/>
			<stop  offset="0.2196" style="stop-color:#D6D7D7"/>
			<stop  offset="0.2227" style="stop-color:#D9D9D9"/>
			<stop  offset="0.2402" style="stop-color:#E6E6E6"/>
			<stop  offset="0.2549" style="stop-color:#EAEAEA"/>
			<stop  offset="0.2786" style="stop-color:#E7E7E7"/>
			<stop  offset="0.2937" style="stop-color:#DFDEDE"/>
			<stop  offset="0.3065" style="stop-color:#CFCECE"/>
			<stop  offset="0.318" style="stop-color:#BBB9B9"/>
			<stop  offset="0.3284" style="stop-color:#A0A0A0"/>
			<stop  offset="0.3294" style="stop-color:#9D9D9D"/>
			<stop  offset="0.3647" style="stop-color:#484848"/>
			<stop  offset="0.5255" style="stop-color:#2E2E2E"/>
			<stop  offset="0.5655" style="stop-color:#303030"/>
			<stop  offset="0.5877" style="stop-color:#373636"/>
			<stop  offset="0.6056" style="stop-color:#424141"/>
			<stop  offset="0.6211" style="stop-color:#545152"/>
			<stop  offset="0.6351" style="stop-color:#6D6A6A"/>
			<stop  offset="0.6481" style="stop-color:#8F8C8D"/>
			<stop  offset="0.66" style="stop-color:#BCBABB"/>
			<stop  offset="0.6706" style="stop-color:#F4F3F4"/>
			<stop  offset="0.7961" style="stop-color:#F4F3F4"/>
			<stop  offset="0.8227" style="stop-color:#BBB9B9"/>
			<stop  offset="0.8573" style="stop-color:#828080"/>
			<stop  offset="0.8835" style="stop-color:#636262"/>
			<stop  offset="0.898" style="stop-color:#585858"/>
			<stop  offset="0.9373" style="stop-color:#3F3F3F"/>
			<stop  offset="1" style="stop-color:#2A292A"/>
		</linearGradient>
		<path style="fill:url(#SVGID_00000098904829644988675620000012492270151499987646_);" d="M23.2,29.9c-0.4,0-0.9,0-1.2-0.2
			c-0.4-0.2-0.7-0.5-0.8-1c-0.2-0.7,0.1-1.5,0.7-2.3c0.7-0.9,1.9-1.4,2.9-1.5c0.4,0,0.9,0,1.2,0.2c0.4,0.2,0.7,0.5,0.8,1
			c0.2,0.7-0.1,1.5-0.7,2.3C25.4,29.2,24.3,29.8,23.2,29.9z"/>
		<path class="st8" d="M26.9,26.1c-0.1-0.4-0.4-0.8-0.8-1c-0.3-0.2-0.8-0.2-1.2-0.2c-1,0.1-2.2,0.7-2.9,1.5
			c-0.6,0.7-0.9,1.6-0.7,2.3c0.1,0.4,0.4,0.8,0.8,1c0.3,0.2,0.8,0.2,1.2,0.2c1-0.1,2.2-0.7,2.9-1.5C26.8,27.6,27.1,26.8,26.9,26.1z
			 M26.1,28.3c-0.7,0.9-1.9,1.4-2.9,1.5c-0.1,0-0.1,0-0.2,0c-0.4,0-0.7-0.1-1-0.2c-0.4-0.2-0.7-0.5-0.8-1c-0.2-0.7,0.1-1.5,0.7-2.3
			c0.7-0.9,1.9-1.4,2.9-1.5c0.1,0,0.1,0,0.2,0c0.4,0,0.7,0.1,1,0.2c0.4,0.2,0.7,0.5,0.8,1C27,26.8,26.7,27.6,26.1,28.3z"/>
		<path class="st8" d="M23.6,29.7c-0.4,0-0.7,0-1-0.2c-0.4-0.2-0.6-0.5-0.7-0.8c-0.2-0.6,0.1-1.3,0.6-2c0.6-0.7,1.6-1.2,2.5-1.3
			c0,0,0,0,0.1,0c0.4,0,0.7,0,1,0.2c0.4,0.2,0.6,0.5,0.7,0.8c0.2,0.6-0.1,1.3-0.6,2C25.5,29.2,24.6,29.7,23.6,29.7
			C23.7,29.7,23.6,29.7,23.6,29.7z"/>
		
			<linearGradient id="SVGID_00000155854530655099305940000003219953129328309408_" gradientUnits="userSpaceOnUse" x1="39.0605" y1="18.6831" x2="42.8929" y2="15.0993" gradientTransform="matrix(0.9982 -6.050000e-02 6.050000e-02 0.9982 -17.5325 13.183)">
			<stop  offset="0" style="stop-color:#141414"/>
			<stop  offset="1" style="stop-color:#484848"/>
		</linearGradient>
		<path style="fill:url(#SVGID_00000155854530655099305940000003219953129328309408_);" d="M23.7,29.7c-0.4,0-0.7,0-1-0.2
			c-0.4-0.2-0.6-0.5-0.7-0.8c-0.2-0.6,0.1-1.3,0.6-1.9c0.6-0.7,1.6-1.2,2.5-1.3c0.4,0,0.7,0,1,0.2c0.4,0.2,0.6,0.5,0.7,0.8
			c0.2,0.6-0.1,1.3-0.6,1.9C25.5,29.2,24.6,29.7,23.7,29.7z"/>
		<g class="st23">
			
				<linearGradient id="SVGID_00000147911762947275518870000011865774724776325025_" gradientUnits="userSpaceOnUse" x1="-15.5556" y1="46.5268" x2="-13.1572" y2="46.5268" gradientTransform="matrix(0.8818 1.200000e-02 0.2364 0.8538 26.1468 -11.946)">
				<stop  offset="0" style="stop-color:#8B8B8B"/>
				<stop  offset="0.3038" style="stop-color:#FFFFFF"/>
				<stop  offset="0.4121" style="stop-color:#F0F0F0"/>
				<stop  offset="0.4897" style="stop-color:#EAEAEA"/>
				<stop  offset="0.6117" style="stop-color:#E7E6E6"/>
				<stop  offset="0.6899" style="stop-color:#DBD9DA"/>
				<stop  offset="0.7558" style="stop-color:#C7C5C5"/>
				<stop  offset="0.8149" style="stop-color:#ADAAAB"/>
				<stop  offset="0.8695" style="stop-color:#8D8A8B"/>
				<stop  offset="0.9207" style="stop-color:#6A6768"/>
				<stop  offset="0.9684" style="stop-color:#474545"/>
				<stop  offset="1" style="stop-color:#2E2E2E"/>
			</linearGradient>
			<path style="fill:url(#SVGID_00000147911762947275518870000011865774724776325025_);" d="M23.6,28.1l1.3-1.4l0.3,0.1
				c0.1,0,0.1,0.1,0.2,0.1c0,0,0.1,0.1,0.1,0.1c0,0,0,0.1,0,0.1c0,0.1-0.1,0.1-0.1,0.2c-0.1,0.1-0.2,0.2-0.2,0.2
				c-0.1,0-0.2,0.1-0.2,0.1l-0.5,0.7l-0.2-0.1l0.4-0.7l-0.1,0l-0.6,0.6L23.6,28.1z M24.6,27.5L24.6,27.5c0.1,0.1,0.2,0.1,0.2,0
				c0.1,0,0.1-0.1,0.2-0.1c0.1-0.1,0.1-0.1,0.1-0.2c0,0,0-0.1-0.1-0.1l-0.1,0L24.6,27.5z"/>
		</g>
	</g>
	<g>
		<g>
			<defs>
				<path id="SVGID_00000033362031371988047100000013622587508210701470_" d="M24.7,9.9l0.2-0.1l0,0l0,0l4.1,0.2
					C28.4,7.8,27,4,23.4,2.4c-1.1-0.5-4.2-1.3-6.5-1.4c0,0,0,0,0,0c-0.4,0-0.7-0.1-1.1-0.1c-2.9,0-5.2,1.4-7,3.4
					c-2.1,2.2-3.3,5.1-3.9,7.1l0,0.1l0.1,0l0,0l3.5,0.4c0.8-2.4,2.5-5.5,5-7.2c1.2-0.8,2.6-1.4,4.1-1.4c3.7,0,5.6,2.5,6.6,5
					C24.4,8.8,24.6,9.4,24.7,9.9C24.7,9.9,24.7,9.9,24.7,9.9z"/>
			</defs>
			<clipPath id="SVGID_00000024686039126472360710000012391605057415339668_">
				<use xlink:href="#SVGID_00000033362031371988047100000013622587508210701470_"  style="overflow:visible;"/>
			</clipPath>
			<g style="clip-path:url(#SVGID_00000024686039126472360710000012391605057415339668_);">
				<g>
					<image style="overflow:visible;" width="21" height="14" xlink:href="38AA2D7F.png"  transform="matrix(1 0 0 1 4 0)">
					</image>
				</g>
				<g>
					
						<linearGradient id="SVGID_00000052062748050042470790000011217098228081690254_" gradientUnits="userSpaceOnUse" x1="20.9116" y1="0.8174" x2="26.1544" y2="12.1672">
						<stop  offset="0" style="stop-color:#1C1C1C"/>
						<stop  offset="0.2259" style="stop-color:#222222"/>
						<stop  offset="0.6131" style="stop-color:#313132"/>
						<stop  offset="1" style="stop-color:#454545"/>
					</linearGradient>
					<path style="fill:url(#SVGID_00000052062748050042470790000011217098228081690254_);" d="M16.9,1c7.2,1.2,8.3,10.5,8.3,10.5
						l4.2,0.2c-0.2-1.2-1.3-7.2-6-9.3C22.3,1.9,19.1,1.1,16.9,1z"/>
				</g>
				
					<linearGradient id="SVGID_00000029761801461805892890000004194621558267675572_" gradientUnits="userSpaceOnUse" x1="4.6118" y1="6.8804" x2="25.1608" y2="6.8804">
					<stop  offset="0" style="stop-color:#030405"/>
					<stop  offset="7.273602e-02" style="stop-color:#111215"/>
					<stop  offset="0.2264" style="stop-color:#2A2C2F"/>
					<stop  offset="0.3818" style="stop-color:#404144"/>
					<stop  offset="0.537" style="stop-color:#525355"/>
					<stop  offset="0.6918" style="stop-color:#616162"/>
					<stop  offset="0.8462" style="stop-color:#6A6A6A"/>
					<stop  offset="1" style="stop-color:#6D6D6D"/>
				</linearGradient>
				<path style="fill:url(#SVGID_00000029761801461805892890000004194621558267675572_);" d="M4.6,12.9c0.2-1.7,1.4-5.7,4.2-8.6
					c1.8-1.9,4.1-3.4,7-3.4c8.5,0,9.4,10.6,9.4,10.6l-0.2,0C24.8,10,23.4,1,15.8,1C8.8,1,4.9,9.9,4.8,12.9L4.6,12.9z"/>
			</g>
		</g>
		<g>
			<path class="st28" d="M4.9,12.9l0.7,0L5,11.4l-0.1,0c-0.1,0.5-0.2,0.9-0.3,1.2C4.6,12.7,4.8,12.9,4.9,12.9z"/>
			
				<linearGradient id="SVGID_00000051360364757654442340000016676806151615565222_" gradientUnits="userSpaceOnUse" x1="5.352" y1="11.4391" x2="5.098" y2="13.0222">
				<stop  offset="0" style="stop-color:#F4F3F4"/>
				<stop  offset="0.1655" style="stop-color:#E8E7E8"/>
				<stop  offset="0.4505" style="stop-color:#CAC8C9"/>
				<stop  offset="0.8182" style="stop-color:#9C9B9B"/>
				<stop  offset="1" style="stop-color:#858585"/>
			</linearGradient>
			<path style="fill:url(#SVGID_00000051360364757654442340000016676806151615565222_);" d="M4.9,12.9l0.7,0L5,11.4l-0.1,0
				c-0.1,0.5-0.2,0.9-0.3,1.2C4.6,12.7,4.8,12.9,4.9,12.9z"/>
			<g>
				
					<linearGradient id="SVGID_00000047057879683157925160000010246072607815496337_" gradientUnits="userSpaceOnUse" x1="8.5493" y1="11.4938" x2="4.7454" y2="12.8656">
					<stop  offset="0" style="stop-color:#8B8B8B"/>
					<stop  offset="0.1933" style="stop-color:#FFFFFF"/>
					<stop  offset="0.3016" style="stop-color:#F0F0F0"/>
					<stop  offset="0.3792" style="stop-color:#EAEAEA"/>
					<stop  offset="0.5276" style="stop-color:#E7E6E6"/>
					<stop  offset="0.6227" style="stop-color:#DBD9DA"/>
					<stop  offset="0.703" style="stop-color:#C7C5C5"/>
					<stop  offset="0.7749" style="stop-color:#ADAAAB"/>
					<stop  offset="0.8412" style="stop-color:#8D8A8B"/>
					<stop  offset="0.9036" style="stop-color:#6A6768"/>
					<stop  offset="0.9616" style="stop-color:#474545"/>
					<stop  offset="1" style="stop-color:#2E2E2E"/>
				</linearGradient>
				<path style="fill:url(#SVGID_00000047057879683157925160000010246072607815496337_);" d="M4.8,12.6c0,0.1,0.1,0.3,0.3,0.3
					c0,0,0,0,0,0c0.1,0,0.3,0,0.4,0C6.3,13,7.1,13,7.9,13.1c0.2,0,0.3-0.1,0.3-0.2c0.1-0.2,0.1-0.5,0.2-0.7c0-0.1,0.1-0.2,0.1-0.3
					L5,11.4C4.9,11.9,4.8,12.3,4.8,12.6z"/>
			</g>
		</g>
		<g>
			<g>
				<path class="st31" d="M24.7,9.9c0.1,0.5,0.2,1,0.2,1.3c0,0.1,0.1,0.2,0.3,0.2l0.8,0l-1.1-1.6L24.7,9.9z"/>
			</g>
			<g>
				
					<linearGradient id="SVGID_00000093171373007370814170000007381439243617402765_" gradientUnits="userSpaceOnUse" x1="25.2395" y1="9.8155" x2="25.4644" y2="11.4816">
					<stop  offset="0" style="stop-color:#F4F3F4"/>
					<stop  offset="0.1655" style="stop-color:#E8E7E8"/>
					<stop  offset="0.4505" style="stop-color:#CAC8C9"/>
					<stop  offset="0.8182" style="stop-color:#9C9B9B"/>
					<stop  offset="1" style="stop-color:#858585"/>
				</linearGradient>
				<path style="fill:url(#SVGID_00000093171373007370814170000007381439243617402765_);" d="M24.7,9.9c0.1,0.5,0.2,1,0.2,1.3
					c0,0.1,0.1,0.2,0.3,0.2l0.8,0l-1.1-1.6L24.7,9.9z"/>
			</g>
			
				<linearGradient id="SVGID_00000080923747553444092090000010773852612546520707_" gradientUnits="userSpaceOnUse" x1="28.7953" y1="9.8139" x2="25.1607" y2="11.6974">
				<stop  offset="0" style="stop-color:#8B8B8B"/>
				<stop  offset="0.3038" style="stop-color:#FFFFFF"/>
				<stop  offset="0.4121" style="stop-color:#F0F0F0"/>
				<stop  offset="0.4897" style="stop-color:#EAEAEA"/>
				<stop  offset="0.6117" style="stop-color:#E7E6E6"/>
				<stop  offset="0.6899" style="stop-color:#DBD9DA"/>
				<stop  offset="0.7558" style="stop-color:#C7C5C5"/>
				<stop  offset="0.8149" style="stop-color:#ADAAAB"/>
				<stop  offset="0.8695" style="stop-color:#8D8A8B"/>
				<stop  offset="0.9207" style="stop-color:#6A6768"/>
				<stop  offset="0.9684" style="stop-color:#474545"/>
				<stop  offset="1" style="stop-color:#2E2E2E"/>
			</linearGradient>
			<path style="fill:url(#SVGID_00000080923747553444092090000010773852612546520707_);" d="M29,10.1l-4.1-0.2l0,0l0,0
				c0.1,0.6,0.2,1.1,0.2,1.4c0,0.1,0.1,0.2,0.3,0.2l3.5,0.1c0.2,0,0.3-0.1,0.3-0.3C29.2,11,29.1,10.6,29,10.1z"/>
		</g>
	</g>
</g>
</svg>
