<?xml version="1.0" encoding="utf-8"?>
<!-- Generator: Adobe Illustrator 26.3.1, SVG Export Plug-In . SVG Version: 6.00 Build 0)  -->
<svg version="1.1" id="Camada_1" xmlns="http://www.w3.org/2000/svg" xmlns:xlink="http://www.w3.org/1999/xlink" x="0px" y="0px"
	 viewBox="0 0 32 32" style="enable-background:new 0 0 32 32;" xml:space="preserve">
<style type="text/css">
	.st0{fill:#FFFFFF;}
	.st1{fill:#1D1D1B;}
	.st2{fill:#FFFFFF;stroke:#575756;stroke-width:0.471;stroke-miterlimit:10;}
	.st3{fill:none;stroke:#575756;stroke-miterlimit:10;}
</style>
<g>
	<g>
		<circle class="st0" cx="16" cy="16" r="15.5"/>
		<path class="st1" d="M16,1c8.2,0,15,6.7,15,15s-6.7,15-15,15S1,24.2,1,16S7.8,1,16,1 M16,0C7.2,0,0,7.2,0,16s7.2,16,16,16
			s16-7.2,16-16S24.8,0,16,0L16,0z"/>
	</g>
	<circle class="st2" cx="16" cy="16" r="14.9"/>
	<path class="st3" d="M1.3,16.4c0,0,2.7,0,3.6,0c0,0,0-0.8,0-1.2c0-1.7,2.2-1.6,2.2,0c0,1,0,2.4,0,3c0,1.6,2.2,1.8,2.2,0
		c0-0.8,0-4.6,0-5.3c0-1.8,1.9-1.8,1.9,0c0,1,0,5.9,0,6.6c0,1.6,2,1.9,2,0c0-1.3,0-7.6,0-8.7c0-2.4,2.1-2.2,2.1,0c0,1.4,0,12,0,12
		c0,1.3,1.7,1.5,1.7,0c0,0,0-11,0-11.9c0-2,2.2-2.1,2.2,0c0,1,0,7.9,0,8.8s2.1,1.5,2.1-0.2s0-5.7,0-6.4c0-2.7,2.1-2.5,2.1,0
		c0,1.5,0,4.3,0,5c0,2.2,2,2.4,2,0c0-1.4,0-2.4,0-3.1c0-1.8,2-1.9,2,0c0,1,0,1.7,0,1.7h3.4"/>
</g>
</svg>
