<?xml version="1.0" encoding="utf-8"?>
<!-- Generator: Adobe Illustrator 26.3.1, SVG Export Plug-In . SVG Version: 6.00 Build 0)  -->
<svg version="1.1" id="Camada_1" xmlns="http://www.w3.org/2000/svg" xmlns:xlink="http://www.w3.org/1999/xlink" x="0px" y="0px"
	 viewBox="0 0 31 31" style="enable-background:new 0 0 31 31;" xml:space="preserve">
<style type="text/css">
	.st0{fill:#FFFFFF;}
</style>
<g>
	<path class="st0" d="M8.5,13.1h3.1v10.1H8.5V13.1z M10.1,8.1c1,0,1.8,0.8,1.8,1.8s-0.8,1.8-1.8,1.8s-1.8-0.8-1.8-1.8
		C8.3,8.9,9.1,8.1,10.1,8.1 M13.6,23.2h3.1v-5c0-1.3,0.2-2.6,1.9-2.6c1.6,0,1.6,1.5,1.6,2.7v4.9h3.1v-5.5c0-2.7-0.6-4.8-3.8-4.8
		c-1.5,0-2.5,0.8-3,1.6h0v-1.4h-3V23.2z"/>
	<path class="st0" d="M28.2,0.2H3.7c-1.8,0-3.2,1.5-3.2,3.2V28c0,1.8,1.5,3.2,3.2,3.2h24.5c1.8,0,3.2-1.5,3.2-3.2V3.5
		C31.5,1.7,30,0.2,28.2,0.2z M29.4,27.5c0,0.9-0.8,1.7-1.7,1.7H4.2c-0.9,0-1.7-0.8-1.7-1.7V4c0-0.9,0.8-1.7,1.7-1.7h23.6
		c0.9,0,1.7,0.8,1.7,1.7L29.4,27.5L29.4,27.5z"/>
</g>
</svg>
