<?xml version="1.0" encoding="utf-8"?>
<!-- Generator: Adobe Illustrator 26.3.1, SVG Export Plug-In . SVG Version: 6.00 Build 0)  -->
<svg version="1.1" id="Camada_1" xmlns="http://www.w3.org/2000/svg" xmlns:xlink="http://www.w3.org/1999/xlink" x="0px" y="0px"
	 viewBox="0 0 150 150" style="enable-background:new 0 0 150 150;" xml:space="preserve">
<style type="text/css">
	.st0{fill:#FFFFFF;}
</style>
<g>
	<path class="st0" d="M75,25c-26.9,0-48.8,22.5-48.8,50s21.9,50,48.8,50s48.8-22.5,48.8-50S101.9,25,75,25z M89.7,120
		c-2.5,0.6-3.1-0.9-3.1-2.2c0-1.6,0-6.6,0-13.1c0-4.4-1.6-7.2-3.1-8.8c10.3-1.2,20.9-5.3,20.9-23.4c0-5.3-1.9-9.4-4.7-12.8
		c0.6-1.2,2.2-5.9-0.3-12.5c0,0-3.8-1.3-12.8,5c-3.8-0.9-7.5-1.6-11.6-1.6s-7.8,0.6-11.6,1.6c-8.8-6.2-12.8-5-12.8-5
		c-2.5,6.6-0.9,11.3-0.3,12.5c-2.8,3.4-4.7,7.5-4.7,12.8c0,18.1,10.6,22.2,20.9,23.4c-1.2,1.2-2.5,3.1-2.8,6.2
		c-2.5,1.2-9.4,3.4-13.4-4.1c0,0-2.5-4.7-7.2-5c0,0-4.4,0-0.3,2.8c0,0,3.1,1.6,5,6.9c0,0,2.8,9.1,15.6,6.2c0,4.1,0,6.9,0,8.1
		s-0.9,2.8-3.1,2.2C42.2,113.8,28.7,95.9,28.7,75c0-26.2,20.7-47.2,46.3-47.2s46.2,21,46.2,47.2C121.2,95.9,107.8,113.8,89.7,120z"
		/>
</g>
<g>
	<path class="st0" d="M134.2,0.1H15.7C7,0.1,0,7.2,0,15.8v118.5C0,143,7.1,150,15.7,150h118.5c8.7,0,15.7-7.1,15.7-15.7V15.8
		C150,7.2,142.9,0.1,134.2,0.1z M140.1,132.1c0,4.5-3.7,8.1-8.1,8.1H18c-4.5,0-8.1-3.7-8.1-8.1v-114c0-4.5,3.7-8.1,8.1-8.1h113.9
		c4.5,0,8.1,3.7,8.1,8.1v114H140.1z"/>
</g>
</svg>
