<?xml version="1.0" encoding="utf-8"?>
<!-- Generator: Adobe Illustrator 26.3.1, SVG Export Plug-In . SVG Version: 6.00 Build 0)  -->
<svg version="1.1" id="Camada_1" xmlns="http://www.w3.org/2000/svg" xmlns:xlink="http://www.w3.org/1999/xlink" x="0px" y="0px"
	 viewBox="0 0 150 150" style="enable-background:new 0 0 150 150;" xml:space="preserve">
<style type="text/css">
	.st0{fill:#FFFFFF;}
</style>
<g>
	<path class="st0" d="M39.6,62.6h15.2v48.8H39.6V62.6z M47.2,38.3c4.9,0,8.8,3.9,8.8,8.8s-3.9,8.8-8.8,8.8s-8.8-3.9-8.8-8.8
		C38.4,42.3,42.3,38.3,47.2,38.3 M64.3,111.3h15.1V87.2c0-6.4,1.2-12.5,9.1-12.5c7.8,0,7.9,7.3,7.9,12.9v23.7h15.1V84.6
		c0-13.1-2.8-23.2-18.2-23.2c-7.4,0-12.3,4-14.3,7.9h-0.2v-6.7H64.3V111.3z"/>
	<path class="st0" d="M134.7,0.3H16.2C7.5,0.3,0.5,7.4,0.5,16v118.5c0,8.7,7.1,15.7,15.7,15.7h118.5c8.7,0,15.7-7.1,15.7-15.7V16
		C150.5,7.4,143.4,0.3,134.7,0.3z M140.6,132.3c0,4.5-3.7,8.1-8.1,8.1h-114c-4.5,0-8.1-3.7-8.1-8.1v-114c0-4.5,3.7-8.1,8.1-8.1
		h113.9c4.5,0,8.1,3.7,8.1,8.1v114H140.6z"/>
</g>
</svg>
