<?xml version="1.0" encoding="utf-8"?>
<!-- Generator: Adobe Illustrator 26.3.1, SVG Export Plug-In . SVG Version: 6.00 Build 0)  -->
<svg version="1.1" id="Camada_1" xmlns="http://www.w3.org/2000/svg" xmlns:xlink="http://www.w3.org/1999/xlink" x="0px" y="0px"
	 viewBox="0 0 31 31" style="enable-background:new 0 0 31 31;" xml:space="preserve">
<style type="text/css">
	.st0{fill:#FFFFFF;}
</style>
<g>
	<g>
		<path class="st0" d="M15.5,5.2C9.9,5.2,5.4,9.9,5.4,15.5s4.5,10.3,10.1,10.3s10.1-4.7,10.1-10.3S21,5.2,15.5,5.2z M18.5,24.8
			c-0.5,0.1-0.6-0.2-0.6-0.5c0-0.3,0-1.4,0-2.7c0-0.9-0.3-1.5-0.6-1.8c2.1-0.2,4.3-1.1,4.3-4.8c0-1.1-0.4-1.9-1-2.6
			c0.1-0.2,0.5-1.2-0.1-2.6c0,0-0.8-0.3-2.6,1c-0.8-0.2-1.6-0.3-2.4-0.3s-1.6,0.1-2.4,0.3c-1.8-1.3-2.6-1-2.6-1
			c-0.5,1.4-0.2,2.3-0.1,2.6c-0.6,0.7-1,1.6-1,2.6c0,3.7,2.2,4.6,4.3,4.8c-0.2,0.2-0.5,0.6-0.6,1.3c-0.5,0.2-1.9,0.7-2.8-0.8
			c0,0-0.5-1-1.5-1c0,0-0.9,0-0.1,0.6c0,0,0.6,0.3,1,1.4c0,0,0.6,1.9,3.2,1.3c0,0.8,0,1.4,0,1.7s-0.2,0.6-0.6,0.5
			c-3.7-1.1-6.5-4.8-6.5-9.1c0-5.4,4.3-9.8,9.6-9.8s9.6,4.3,9.6,9.8C25,19.9,22.2,23.6,18.5,24.8z"/>
	</g>
	<g>
		<path class="st0" d="M27.7,0.1H3.2C1.4,0.1,0,1.5,0,3.3v24.5C0,29.6,1.4,31,3.2,31h24.5c1.8,0,3.2-1.5,3.2-3.2V3.3
			C31,1.5,29.5,0.1,27.7,0.1z M28.9,27.3c0,0.9-0.8,1.7-1.7,1.7H3.7C2.7,29,2,28.3,2,27.3V3.8c0-0.9,0.8-1.7,1.7-1.7h23.6
			c0.9,0,1.7,0.8,1.7,1.7L28.9,27.3L28.9,27.3z"/>
	</g>
</g>
</svg>
