<?xml version="1.0" encoding="utf-8"?>
<!-- Generator: Adobe Illustrator 26.3.1, SVG Export Plug-In . SVG Version: 6.00 Build 0)  -->
<svg version="1.1" id="Camada_1" xmlns="http://www.w3.org/2000/svg" xmlns:xlink="http://www.w3.org/1999/xlink" x="0px" y="0px"
	 viewBox="0 0 150 75" style="enable-background:new 0 0 150 75;" xml:space="preserve">
<style type="text/css">
	.st0{fill:url(#SVGID_1_);}
	.st1{fill:url(#SVGID_00000121237521882264170240000010953564532345402299_);}
	.st2{fill:url(#SVGID_00000105426256361353766120000012239203785369329577_);}
	.st3{fill:url(#SVGID_00000056413530921426927590000005480503132913165988_);}
	.st4{fill:url(#SVGID_00000143607609776969205380000003828388819658378644_);}
	.st5{fill:#222222;}
	.st6{fill:url(#SVGID_00000049924183661190602060000000983187059260850312_);}
	.st7{fill:#B4B4B4;}
	.st8{fill:url(#SVGID_00000065072051368409655340000012166450121964644495_);}
	.st9{fill:#202121;}
	.st10{fill:url(#SVGID_00000106142264076616716000000008359177949084912830_);}
	.st11{fill:#A7A7A7;}
	.st12{fill:url(#SVGID_00000081616337173323035680000004318421672769235625_);}
	.st13{fill:url(#SVGID_00000116236239617162651240000012573335661618002836_);}
	.st14{fill:url(#SVGID_00000147916611118802502560000012274526156752273340_);}
	.st15{fill:url(#SVGID_00000045580416882203512380000009331123964074884283_);}
	.st16{fill:url(#SVGID_00000138556294987716929890000004821184493714875294_);}
	.st17{fill:url(#SVGID_00000016061464434625645310000003331269990220297353_);}
	.st18{fill:url(#SVGID_00000157274428821579607320000006801606559541895811_);}
	.st19{fill:url(#SVGID_00000139275374226617284320000013291082588245410214_);}
	.st20{fill:url(#SVGID_00000024706160830619255100000016461472019807025539_);}
	.st21{fill:url(#SVGID_00000070823896461637046020000016675854711674819474_);}
	.st22{fill:url(#SVGID_00000136373715353626228990000010264009103836866194_);}
	.st23{fill:url(#SVGID_00000100384937267185096510000017864584034932717457_);}
	.st24{fill:url(#SVGID_00000105420301992610537710000006222545192298188445_);}
	.st25{fill:url(#SVGID_00000018928540924823564470000016431085931076961459_);}
	.st26{fill:url(#SVGID_00000147191702514138067660000003203262033452711297_);}
	.st27{fill:#E6E6E6;}
	.st28{fill:url(#SVGID_00000026140549293390074690000003143154325250429602_);}
	.st29{fill:url(#SVGID_00000087401690784765359390000014672508414691345545_);}
	.st30{fill:url(#SVGID_00000091729870958989243870000011953764653439060894_);}
	.st31{fill:url(#SVGID_00000161622160464585221040000006782907700257162151_);}
	.st32{fill:url(#SVGID_00000111165961486491837950000014246726661087157409_);}
	.st33{fill:#FFFFFF;}
	.st34{font-family:'Cormier-Double';}
	.st35{font-size:22px;}
</style>
<g>
	<g>
		
			<image style="overflow:visible;" width="33" height="98" xlink:href="CB7AA057.png"  transform="matrix(0.24 0 0 0.24 6.04 30.24)">
		</image>
		<g>
			<g>
				<g>
					
						<linearGradient id="SVGID_1_" gradientUnits="userSpaceOnUse" x1="-448.7364" y1="-1012.967" x2="-446.3048" y2="-1008.7299" gradientTransform="matrix(-2.1288 1.2564 -0.2309 -0.3916 -1172.49 227.9832)">
						<stop  offset="0" style="stop-color:#222222"/>
						<stop  offset="7.923783e-02" style="stop-color:#262526"/>
						<stop  offset="0.1994" style="stop-color:#302F2F"/>
						<stop  offset="0.3454" style="stop-color:#444141"/>
						<stop  offset="0.5117" style="stop-color:#615F60"/>
						<stop  offset="0.693" style="stop-color:#8C8C8C"/>
						<stop  offset="0.7403" style="stop-color:#9A9A99"/>
						<stop  offset="0.7782" style="stop-color:#979696"/>
						<stop  offset="0.8162" style="stop-color:#8D8C8D"/>
						<stop  offset="0.8543" style="stop-color:#7E7D7D"/>
						<stop  offset="0.8925" style="stop-color:#6A6869"/>
						<stop  offset="0.9308" style="stop-color:#525050"/>
						<stop  offset="0.9685" style="stop-color:#383636"/>
						<stop  offset="1" style="stop-color:#222222"/>
					</linearGradient>
					<path class="st0" d="M12.1,61.1l1.9-1.1c0.2-0.1,0.5-0.1,0.6,0.1l0.8,1.3c0.1,0.2,0.1,0.5-0.1,0.6l-1.9,1.1L12.1,61.1z"/>
					
						<linearGradient id="SVGID_00000006670958157059662370000008714790784596447369_" gradientUnits="userSpaceOnUse" x1="-448.7364" y1="-1012.967" x2="-446.3048" y2="-1008.7299" gradientTransform="matrix(-2.1288 1.2564 -0.2309 -0.3916 -1172.49 227.9832)">
						<stop  offset="0" style="stop-color:#222222"/>
						<stop  offset="0.1398" style="stop-color:#373536"/>
						<stop  offset="0.4395" style="stop-color:#777374"/>
						<stop  offset="0.8661" style="stop-color:#FFFFFF"/>
					</linearGradient>
					<path style="fill:url(#SVGID_00000006670958157059662370000008714790784596447369_);" d="M12.1,61.1l1.9-1.1
						c0.2-0.1,0.5-0.1,0.6,0.1l0.8,1.3c0.1,0.2,0.1,0.5-0.1,0.6l-1.9,1.1L12.1,61.1z"/>
					
						<linearGradient id="SVGID_00000094596118509003029700000004660787118233657244_" gradientUnits="userSpaceOnUse" x1="-568.3596" y1="-552.3149" x2="-565.9648" y2="-548.142" gradientTransform="matrix(-0.8612 0.5083 -0.5082 -0.8613 -755.0788 -123.7282)">
						<stop  offset="0" style="stop-color:#222222"/>
						<stop  offset="7.923783e-02" style="stop-color:#262526"/>
						<stop  offset="0.1994" style="stop-color:#302F2F"/>
						<stop  offset="0.3454" style="stop-color:#444141"/>
						<stop  offset="0.5117" style="stop-color:#615F60"/>
						<stop  offset="0.693" style="stop-color:#8C8C8C"/>
						<stop  offset="0.7403" style="stop-color:#9A9A99"/>
						<stop  offset="0.7782" style="stop-color:#979696"/>
						<stop  offset="0.8162" style="stop-color:#8D8C8D"/>
						<stop  offset="0.8543" style="stop-color:#7E7D7D"/>
						<stop  offset="0.8925" style="stop-color:#6A6869"/>
						<stop  offset="0.9308" style="stop-color:#525050"/>
						<stop  offset="0.9685" style="stop-color:#383636"/>
						<stop  offset="1" style="stop-color:#222222"/>
					</linearGradient>
					<path style="fill:url(#SVGID_00000094596118509003029700000004660787118233657244_);" d="M11.3,59.9l0.5-0.3
						c0.2-0.1,0.5-0.1,0.6,0.1l2.2,3.7c0.1,0.2,0.1,0.5-0.1,0.6l-0.5,0.3L11.3,59.9z"/>
					
						<linearGradient id="SVGID_00000042733412090561880880000004071277509204164790_" gradientUnits="userSpaceOnUse" x1="12.7462" y1="62.0729" x2="13.5483" y2="61.5882">
						<stop  offset="0" style="stop-color:#222222"/>
						<stop  offset="0.1398" style="stop-color:#373536"/>
						<stop  offset="0.4395" style="stop-color:#777374"/>
						<stop  offset="0.8661" style="stop-color:#FFFFFF"/>
					</linearGradient>
					<path style="fill:url(#SVGID_00000042733412090561880880000004071277509204164790_);" d="M11.3,59.9l0.5-0.3
						c0.2-0.1,0.5-0.1,0.6,0.1l2.2,3.7c0.1,0.2,0.1,0.5-0.1,0.6l-0.5,0.3L11.3,59.9z"/>
					<g>
						<g>
							
								<linearGradient id="SVGID_00000009566695355117832440000010859073234421544329_" gradientUnits="userSpaceOnUse" x1="10.3134" y1="58.0398" x2="15.0597" y2="66.3103">
								<stop  offset="0" style="stop-color:#222222"/>
								<stop  offset="3.147421e-02" style="stop-color:#383636"/>
								<stop  offset="6.924341e-02" style="stop-color:#525050"/>
								<stop  offset="0.1075" style="stop-color:#6A6869"/>
								<stop  offset="0.1457" style="stop-color:#7E7D7D"/>
								<stop  offset="0.1838" style="stop-color:#8D8C8D"/>
								<stop  offset="0.2218" style="stop-color:#979696"/>
								<stop  offset="0.2597" style="stop-color:#9A9A99"/>
								<stop  offset="0.307" style="stop-color:#8C8C8C"/>
								<stop  offset="0.4883" style="stop-color:#615F60"/>
								<stop  offset="0.6546" style="stop-color:#444141"/>
								<stop  offset="0.8006" style="stop-color:#302F2F"/>
								<stop  offset="0.9208" style="stop-color:#262526"/>
								<stop  offset="1" style="stop-color:#222222"/>
							</linearGradient>
							<path style="fill:url(#SVGID_00000009566695355117832440000010859073234421544329_);" d="M14.8,66.4c0.2-0.1-0.1-1.1-0.1-1.1
								S14,63.8,12.9,62c-1.1-1.8-2-3.3-2-3.3s-0.6-0.7-0.8-0.6L14.8,66.4z"/>
							<path class="st5" d="M10.1,58.2c0.1,0,1.2,1.8,2.5,4.1c1.3,2.3,2.3,4.2,2.3,4.2c-0.1,0-1.2-1.8-2.5-4.1
								C11,60.1,10,58.2,10.1,58.2z"/>
						</g>
						<g>
							
								<linearGradient id="SVGID_00000094577123286476177350000017168076194678859171_" gradientUnits="userSpaceOnUse" x1="9.8626" y1="58.8142" x2="14.3747" y2="66.3404">
								<stop  offset="0" style="stop-color:#C7C7C7"/>
								<stop  offset="1.917649e-03" style="stop-color:#CBCBCB"/>
								<stop  offset="1.392989e-02" style="stop-color:#E2E2E2"/>
								<stop  offset="2.417274e-02" style="stop-color:#F0F0F0"/>
								<stop  offset="3.137250e-02" style="stop-color:#F5F5F5"/>
								<stop  offset="4.433613e-02" style="stop-color:#F3F3F3"/>
								<stop  offset="5.264782e-02" style="stop-color:#EDEDEC"/>
								<stop  offset="5.965091e-02" style="stop-color:#E2E2E2"/>
								<stop  offset="6.589496e-02" style="stop-color:#D2D2D2"/>
								<stop  offset="6.666670e-02" style="stop-color:#D0D0D0"/>
								<stop  offset="9.803919e-02" style="stop-color:#C7C7C7"/>
								<stop  offset="0.1034" style="stop-color:#D8D8D8"/>
								<stop  offset="0.1094" style="stop-color:#E6E6E6"/>
								<stop  offset="0.1137" style="stop-color:#EBEBEA"/>
								<stop  offset="0.1594" style="stop-color:#F2F2F2"/>
								<stop  offset="0.2196" style="stop-color:#F8F8F8"/>
								<stop  offset="0.2549" style="stop-color:#F5F5F5"/>
								<stop  offset="0.2823" style="stop-color:#F3F3F3"/>
								<stop  offset="0.2998" style="stop-color:#EDEDEC"/>
								<stop  offset="0.3146" style="stop-color:#E2E2E2"/>
								<stop  offset="0.3278" style="stop-color:#D2D2D2"/>
								<stop  offset="0.3294" style="stop-color:#D0D0D0"/>
								<stop  offset="0.3647" style="stop-color:#A5A4A4"/>
								<stop  offset="0.5255" style="stop-color:#969696"/>
								<stop  offset="0.5695" style="stop-color:#989898"/>
								<stop  offset="0.5939" style="stop-color:#9F9F9E"/>
								<stop  offset="0.6135" style="stop-color:#ABAAAA"/>
								<stop  offset="0.6306" style="stop-color:#BABABA"/>
								<stop  offset="0.646" style="stop-color:#CECECE"/>
								<stop  offset="0.66" style="stop-color:#E5E5E5"/>
								<stop  offset="0.6706" style="stop-color:#FAFAFA"/>
								<stop  offset="0.7961" style="stop-color:#FAFAFA"/>
								<stop  offset="0.8022" style="stop-color:#F5F4F4"/>
								<stop  offset="0.8462" style="stop-color:#CFCFCF"/>
								<stop  offset="0.8795" style="stop-color:#B7B6B6"/>
								<stop  offset="0.898" style="stop-color:#ADADAD"/>
								<stop  offset="0.9373" style="stop-color:#A0A09F"/>
								<stop  offset="1" style="stop-color:#949493"/>
							</linearGradient>
							<path style="fill:url(#SVGID_00000094577123286476177350000017168076194678859171_);" d="M12.5,62.3
								c-1.3-2.3-2.4-4.1-2.5-4.1c-0.2,0.1-0.2,1.2-0.2,1.2c0-0.1,0.9,1.4,2,3.3c1.1,1.8,1.9,3.4,1.8,3.4c0,0,0.9,0.5,1.2,0.4
								C14.8,66.4,13.8,64.6,12.5,62.3z"/>
							<path class="st7" d="M12.5,62.3c-1.3-2.3-2.4-4.1-2.5-4.1c0,0,0,0,0,0C10.2,58.4,11.2,60.2,12.5,62.3
								c1.2,2.1,2.2,3.9,2.3,4.2c0,0,0,0,0,0C14.8,66.4,13.8,64.6,12.5,62.3z"/>
							
								<linearGradient id="SVGID_00000075158884300376232080000003436535072115320235_" gradientUnits="userSpaceOnUse" x1="9.779" y1="62.7453" x2="13.6169" y2="62.7453">
								<stop  offset="0" style="stop-color:#F8F8F8"/>
								<stop  offset="9.995601e-02" style="stop-color:#E1E1E1"/>
								<stop  offset="0.225" style="stop-color:#C8C7C7"/>
								<stop  offset="0.3445" style="stop-color:#B5B5B4"/>
								<stop  offset="0.4547" style="stop-color:#A9A9A8"/>
								<stop  offset="0.547" style="stop-color:#A5A4A4"/>
								<stop  offset="1" style="stop-color:#949493"/>
							</linearGradient>
							<path style="fill:url(#SVGID_00000075158884300376232080000003436535072115320235_);" d="M9.8,59.4c0-0.1,0.9,1.4,2,3.3
								c1.1,1.8,1.9,3.4,1.8,3.4c0,0-0.9-1.4-2-3.3C10.6,61,9.8,59.5,9.8,59.4z"/>
						</g>
						<path class="st7" d="M13.7,66.1c-0.1-0.2-0.9-1.7-1.9-3.4c-1-1.8-1.9-3.2-2-3.3c0,0.1,0,0.1,0,0.1c0-0.1,0.9,1.4,2,3.3
							C12.8,64.5,13.7,66.1,13.7,66.1C13.6,66.1,13.6,66.1,13.7,66.1z"/>
					</g>
				</g>
				<g>
					<g>
						
							<image style="overflow:visible;" width="58" height="95" xlink:href="CB7AA055.png"  transform="matrix(0.24 0 0 0.24 18.76 43.92)">
						</image>
						<path class="st9" d="M18.8,44.3c0.5-0.3,3.9,4.4,7.5,10.5c3.6,6.2,5.9,11.5,5.4,11.8c-0.5,0.3-3.8-4.5-7.4-10.6
							C20.7,49.8,18.2,44.6,18.8,44.3z"/>
					</g>
					
						<image style="overflow:visible;" width="70" height="104" xlink:href="CB7AA05B.png"  transform="matrix(0.24 0 0 0.24 14.68 43.92)">
					</image>
				</g>
				<g>
					
						<linearGradient id="SVGID_00000048465772844085644290000002968138202248372871_" gradientUnits="userSpaceOnUse" x1="-176.1254" y1="142.1814" x2="-150.0489" y2="142.1814" gradientTransform="matrix(-0.5 -0.866 0.866 -0.5 -183.3298 -12.5712)">
						<stop  offset="0" style="stop-color:#C7C7C7"/>
						<stop  offset="1.917649e-03" style="stop-color:#CBCBCB"/>
						<stop  offset="1.392989e-02" style="stop-color:#E2E2E2"/>
						<stop  offset="2.417274e-02" style="stop-color:#F0F0F0"/>
						<stop  offset="3.137250e-02" style="stop-color:#F5F5F5"/>
						<stop  offset="4.433613e-02" style="stop-color:#F3F3F3"/>
						<stop  offset="5.264782e-02" style="stop-color:#EDEDEC"/>
						<stop  offset="5.965091e-02" style="stop-color:#E2E2E2"/>
						<stop  offset="6.589496e-02" style="stop-color:#D2D2D2"/>
						<stop  offset="6.666670e-02" style="stop-color:#D0D0D0"/>
						<stop  offset="9.803919e-02" style="stop-color:#C7C7C7"/>
						<stop  offset="0.1034" style="stop-color:#D8D8D8"/>
						<stop  offset="0.1094" style="stop-color:#E6E6E6"/>
						<stop  offset="0.1137" style="stop-color:#EBEBEA"/>
						<stop  offset="0.1594" style="stop-color:#F2F2F2"/>
						<stop  offset="0.2196" style="stop-color:#F8F8F8"/>
						<stop  offset="0.2549" style="stop-color:#F5F5F5"/>
						<stop  offset="0.2823" style="stop-color:#F3F3F3"/>
						<stop  offset="0.2998" style="stop-color:#EDEDEC"/>
						<stop  offset="0.3146" style="stop-color:#E2E2E2"/>
						<stop  offset="0.3278" style="stop-color:#D2D2D2"/>
						<stop  offset="0.3294" style="stop-color:#D0D0D0"/>
						<stop  offset="0.3647" style="stop-color:#A5A4A4"/>
						<stop  offset="0.5255" style="stop-color:#969696"/>
						<stop  offset="0.5695" style="stop-color:#989898"/>
						<stop  offset="0.5939" style="stop-color:#9F9F9E"/>
						<stop  offset="0.6135" style="stop-color:#ABAAAA"/>
						<stop  offset="0.6306" style="stop-color:#BABABA"/>
						<stop  offset="0.646" style="stop-color:#CECECE"/>
						<stop  offset="0.66" style="stop-color:#E5E5E5"/>
						<stop  offset="0.6706" style="stop-color:#FAFAFA"/>
						<stop  offset="0.7961" style="stop-color:#FAFAFA"/>
						<stop  offset="0.8022" style="stop-color:#F5F4F4"/>
						<stop  offset="0.8462" style="stop-color:#CFCFCF"/>
						<stop  offset="0.8795" style="stop-color:#B7B6B6"/>
						<stop  offset="0.898" style="stop-color:#ADADAD"/>
						<stop  offset="0.9373" style="stop-color:#A0A09F"/>
						<stop  offset="1" style="stop-color:#949493"/>
					</linearGradient>
					<path style="fill:url(#SVGID_00000048465772844085644290000002968138202248372871_);" d="M14.2,46.6l13,22.6
						c0.1-0.1,0.5-0.3,0.6-0.3c0.3-0.2-2.3-5.4-5.9-11.6c-3.6-6.2-6.8-11.1-7.1-10.9C14.7,46.3,14.3,46.6,14.2,46.6z"/>
					<g>
						<path class="st11" d="M20.3,58.3c0,0.1,0.1,0.2,0.2,0.3L20.3,58.3z"/>
					</g>
					
						<image style="overflow:visible;" width="61" height="95" xlink:href="CB7AA05D.png"  transform="matrix(0.24 0 0 0.24 12.76 46.56)">
					</image>
					<path class="st7" d="M18.2,60.5c-2.8-4.8-5.1-8.6-5.3-8.5l0,0.1C13,51.9,15.4,55.7,18.2,60.5c2.7,4.8,4.8,8.7,4.6,8.8
						c0,0,0.1,0,0.1,0C22.9,68.8,20.8,65,18.2,60.5z"/>
					<path class="st7" d="M15.8,48.7c0.4,0.6,0.9,1.4,1.5,2.3c1.2,1.8,2.5,4.1,4,6.6c2,3.5,3.8,6.8,4.8,8.9c0.8,1.5,1.2,2.5,1.1,2.7
						c0,0,0,0,0.1,0c0.1-0.1-0.3-1.1-1.1-2.7c-1.1-2.1-2.8-5.4-4.8-8.9c-1.5-2.5-2.8-4.8-4-6.6C16.8,50.1,16.3,49.3,15.8,48.7
						c-0.8-1.4-1.4-2.2-1.6-2.1c0,0,0,0,0,0C14.4,46.7,15,47.5,15.8,48.7z"/>
				</g>
				<path class="st5" d="M12.9,52c0.1-0.1,2.5,3.7,5.2,8.5c2.7,4.8,4.9,8.7,4.7,8.8c-0.2-0.2-2.5-3.7-5.2-8.5S12.9,52.2,12.9,52z"/>
				<g>
					<g>
						
							<linearGradient id="SVGID_00000039118386260434559520000007370921257005994669_" gradientUnits="userSpaceOnUse" x1="12.1177" y1="51.6056" x2="22.1322" y2="69.0559">
							<stop  offset="0" style="stop-color:#222222"/>
							<stop  offset="3.147421e-02" style="stop-color:#383636"/>
							<stop  offset="6.924341e-02" style="stop-color:#525050"/>
							<stop  offset="0.1075" style="stop-color:#6A6869"/>
							<stop  offset="0.1457" style="stop-color:#7E7D7D"/>
							<stop  offset="0.1838" style="stop-color:#8D8C8D"/>
							<stop  offset="0.2218" style="stop-color:#979696"/>
							<stop  offset="0.2597" style="stop-color:#9A9A99"/>
							<stop  offset="0.307" style="stop-color:#8C8C8C"/>
							<stop  offset="0.4883" style="stop-color:#615F60"/>
							<stop  offset="0.6546" style="stop-color:#444141"/>
							<stop  offset="0.8006" style="stop-color:#302F2F"/>
							<stop  offset="0.9208" style="stop-color:#262526"/>
							<stop  offset="1" style="stop-color:#222222"/>
						</linearGradient>
						<path style="fill:url(#SVGID_00000039118386260434559520000007370921257005994669_);" d="M21.7,69.3c0.5-0.3-0.3-2.2-0.3-2.2
							s-1.6-3.2-3.9-7.1c-2.2-3.9-4.2-6.9-4.2-6.9s-1.2-1.4-1.7-1.2L21.7,69.3z"/>
						<path class="st5" d="M11.6,51.9c0.1-0.1,2.5,3.8,5.3,8.6c2.8,4.8,4.9,8.8,4.8,8.8c-0.1,0.1-2.5-3.8-5.3-8.6
							C13.6,55.9,11.5,52,11.6,51.9z"/>
					</g>
					<g>
						
							<linearGradient id="SVGID_00000109007888883261155780000003289384127915763626_" gradientUnits="userSpaceOnUse" x1="11.1667" y1="53.2395" x2="20.6868" y2="69.1191">
							<stop  offset="2.803750e-02" style="stop-color:#222222"/>
							<stop  offset="3.683066e-02" style="stop-color:#282728"/>
							<stop  offset="9.440057e-02" style="stop-color:#514F4F"/>
							<stop  offset="0.1469" style="stop-color:#787676"/>
							<stop  offset="0.1928" style="stop-color:#989697"/>
							<stop  offset="0.23" style="stop-color:#ADADAD"/>
							<stop  offset="0.2541" style="stop-color:#B5B5B5"/>
							<stop  offset="0.3812" style="stop-color:#A7A7A7"/>
							<stop  offset="0.4779" style="stop-color:#9A9A99"/>
							<stop  offset="0.5113" style="stop-color:#8C8C8C"/>
							<stop  offset="0.6391" style="stop-color:#615F60"/>
							<stop  offset="0.7564" style="stop-color:#444141"/>
							<stop  offset="0.8594" style="stop-color:#302F2F"/>
							<stop  offset="0.9441" style="stop-color:#262526"/>
							<stop  offset="1" style="stop-color:#222222"/>
						</linearGradient>
						<path style="fill:url(#SVGID_00000109007888883261155780000003289384127915763626_);" d="M16.8,60.5c-2.8-4.8-5.1-8.7-5.3-8.6
							C11,52.2,11,54.5,11,54.5c0-0.1,2,3,4.2,6.9c2.2,3.9,4,7.2,3.9,7.1c0,0,2,1.1,2.5,0.8C21.7,69.3,19.5,65.4,16.8,60.5z"/>
						<path class="st7" d="M16.8,60.5c-2.8-4.8-5.1-8.7-5.3-8.6c0,0,0,0,0,0C11.8,52.4,14.1,56.1,16.8,60.5c2.5,4.5,4.5,8.2,4.8,8.9
							c0,0,0,0,0,0C21.7,69.3,19.5,65.4,16.8,60.5z"/>
						<path class="st5" d="M11,54.5c0-0.1,2,3,4.2,6.9c2.2,3.9,4,7.2,3.9,7.1c-0.1-0.1-2-3-4.2-6.9C12.6,57.8,11,54.6,11,54.5z"/>
					</g>
					<path class="st7" d="M19.3,68.6c-0.2-0.5-1.9-3.6-4-7.2c-2.1-3.7-4.1-6.8-4.3-7.1c0,0.1,0,0.2,0,0.2c0-0.1,2,3,4.2,6.9
						c2.2,3.9,4,7.2,3.9,7.1C19.1,68.5,19.1,68.6,19.3,68.6z"/>
				</g>
			</g>
		</g>
		
			<linearGradient id="SVGID_00000139295909928233382000000010733725877814527413_" gradientUnits="userSpaceOnUse" x1="3.7024" y1="31.7502" x2="18.4718" y2="68.8574">
			<stop  offset="0" style="stop-color:#222222"/>
			<stop  offset="1.181723e-02" style="stop-color:#282728"/>
			<stop  offset="8.918605e-02" style="stop-color:#514F4F"/>
			<stop  offset="0.1598" style="stop-color:#787676"/>
			<stop  offset="0.2214" style="stop-color:#989697"/>
			<stop  offset="0.2715" style="stop-color:#ADADAD"/>
			<stop  offset="0.3039" style="stop-color:#B5B5B5"/>
			<stop  offset="0.4654" style="stop-color:#A7A7A7"/>
			<stop  offset="0.5884" style="stop-color:#9A9A99"/>
			<stop  offset="0.6147" style="stop-color:#8C8C8C"/>
			<stop  offset="0.7155" style="stop-color:#615F60"/>
			<stop  offset="0.808" style="stop-color:#444141"/>
			<stop  offset="0.8892" style="stop-color:#302F2F"/>
			<stop  offset="0.9559" style="stop-color:#262526"/>
			<stop  offset="1" style="stop-color:#222222"/>
		</linearGradient>
		<path style="fill:url(#SVGID_00000139295909928233382000000010733725877814527413_);" d="M9.1,51.9c-0.9-1.6-1.5-3.3-1.8-5.1
			c-0.5-3.2-0.6-6.5-0.7-10c0-1,0.1-6,0.1-7l-1.2-0.1c0,1-0.1,6-0.1,7c0,3.6,0.4,7.3,1.1,10.8c0.3,1.7,0.9,3.3,1.8,4.8L17.3,68
			c0.2,0.4,0.8,0.6,1.2,0.3l0,0L9.1,51.9z"/>
	</g>
	<g>
		
			<image style="overflow:visible;" width="33" height="98" xlink:href="CB7AA05F.png"  transform="matrix(0.24 0 0 0.24 54.04 30.24)">
		</image>
		<g>
			<g>
				<g>
					
						<linearGradient id="SVGID_00000170994293078280455390000005135379240394837422_" gradientUnits="userSpaceOnUse" x1="-288.1217" y1="-497.6555" x2="-285.6899" y2="-493.4182" gradientTransform="matrix(2.1288 1.2564 0.2309 -0.3916 779.5701 227.9832)">
						<stop  offset="0" style="stop-color:#222222"/>
						<stop  offset="7.923783e-02" style="stop-color:#262526"/>
						<stop  offset="0.1994" style="stop-color:#302F2F"/>
						<stop  offset="0.3454" style="stop-color:#444141"/>
						<stop  offset="0.5117" style="stop-color:#615F60"/>
						<stop  offset="0.693" style="stop-color:#8C8C8C"/>
						<stop  offset="0.7403" style="stop-color:#9A9A99"/>
						<stop  offset="0.7782" style="stop-color:#979696"/>
						<stop  offset="0.8162" style="stop-color:#8D8C8D"/>
						<stop  offset="0.8543" style="stop-color:#7E7D7D"/>
						<stop  offset="0.8925" style="stop-color:#6A6869"/>
						<stop  offset="0.9308" style="stop-color:#525050"/>
						<stop  offset="0.9685" style="stop-color:#383636"/>
						<stop  offset="1" style="stop-color:#222222"/>
					</linearGradient>
					<path style="fill:url(#SVGID_00000170994293078280455390000005135379240394837422_);" d="M55.9,61.1L54.1,60
						c-0.2-0.1-0.5-0.1-0.6,0.1l-0.8,1.3c-0.1,0.2-0.1,0.5,0.1,0.6l1.9,1.1L55.9,61.1z"/>
					
						<linearGradient id="SVGID_00000048497027363192987090000005687248829838486669_" gradientUnits="userSpaceOnUse" x1="-288.1217" y1="-497.6555" x2="-285.6899" y2="-493.4182" gradientTransform="matrix(2.1288 1.2564 0.2309 -0.3916 779.5701 227.9832)">
						<stop  offset="0" style="stop-color:#222222"/>
						<stop  offset="0.1398" style="stop-color:#373536"/>
						<stop  offset="0.4395" style="stop-color:#777374"/>
						<stop  offset="0.8661" style="stop-color:#FFFFFF"/>
					</linearGradient>
					<path style="fill:url(#SVGID_00000048497027363192987090000005687248829838486669_);" d="M55.9,61.1L54.1,60
						c-0.2-0.1-0.5-0.1-0.6,0.1l-0.8,1.3c-0.1,0.2-0.1,0.5,0.1,0.6l1.9,1.1L55.9,61.1z"/>
					
						<linearGradient id="SVGID_00000041296494785512638810000016748114953994622354_" gradientUnits="userSpaceOnUse" x1="-171.4115" y1="-318.055" x2="-169.0168" y2="-313.8822" gradientTransform="matrix(0.8612 0.5083 0.5082 -0.8613 362.1589 -123.7282)">
						<stop  offset="0" style="stop-color:#222222"/>
						<stop  offset="7.923783e-02" style="stop-color:#262526"/>
						<stop  offset="0.1994" style="stop-color:#302F2F"/>
						<stop  offset="0.3454" style="stop-color:#444141"/>
						<stop  offset="0.5117" style="stop-color:#615F60"/>
						<stop  offset="0.693" style="stop-color:#8C8C8C"/>
						<stop  offset="0.7403" style="stop-color:#9A9A99"/>
						<stop  offset="0.7782" style="stop-color:#979696"/>
						<stop  offset="0.8162" style="stop-color:#8D8C8D"/>
						<stop  offset="0.8543" style="stop-color:#7E7D7D"/>
						<stop  offset="0.8925" style="stop-color:#6A6869"/>
						<stop  offset="0.9308" style="stop-color:#525050"/>
						<stop  offset="0.9685" style="stop-color:#383636"/>
						<stop  offset="1" style="stop-color:#222222"/>
					</linearGradient>
					<path style="fill:url(#SVGID_00000041296494785512638810000016748114953994622354_);" d="M56.6,59.9l-0.5-0.3
						c-0.2-0.1-0.5-0.1-0.6,0.1l-2.2,3.7c-0.1,0.2-0.1,0.5,0.1,0.6l0.5,0.3L56.6,59.9z"/>
					
						<linearGradient id="SVGID_00000098205997530570431380000013206894835160967053_" gradientUnits="userSpaceOnUse" x1="-448.1565" y1="62.0735" x2="-447.3543" y2="61.5889" gradientTransform="matrix(-1 0 0 1 -392.9199 0)">
						<stop  offset="0" style="stop-color:#222222"/>
						<stop  offset="0.1398" style="stop-color:#373536"/>
						<stop  offset="0.4395" style="stop-color:#777374"/>
						<stop  offset="0.8661" style="stop-color:#FFFFFF"/>
					</linearGradient>
					<path style="fill:url(#SVGID_00000098205997530570431380000013206894835160967053_);" d="M56.6,59.9l-0.5-0.3
						c-0.2-0.1-0.5-0.1-0.6,0.1l-2.2,3.7c-0.1,0.2-0.1,0.5,0.1,0.6l0.5,0.3L56.6,59.9z"/>
					<g>
						<g>
							
								<linearGradient id="SVGID_00000080893437351670381530000017853631524622590607_" gradientUnits="userSpaceOnUse" x1="-450.5892" y1="58.0405" x2="-445.8429" y2="66.311" gradientTransform="matrix(-1 0 0 1 -392.9199 0)">
								<stop  offset="0" style="stop-color:#222222"/>
								<stop  offset="3.147421e-02" style="stop-color:#383636"/>
								<stop  offset="6.924341e-02" style="stop-color:#525050"/>
								<stop  offset="0.1075" style="stop-color:#6A6869"/>
								<stop  offset="0.1457" style="stop-color:#7E7D7D"/>
								<stop  offset="0.1838" style="stop-color:#8D8C8D"/>
								<stop  offset="0.2218" style="stop-color:#979696"/>
								<stop  offset="0.2597" style="stop-color:#9A9A99"/>
								<stop  offset="0.307" style="stop-color:#8C8C8C"/>
								<stop  offset="0.4883" style="stop-color:#615F60"/>
								<stop  offset="0.6546" style="stop-color:#444141"/>
								<stop  offset="0.8006" style="stop-color:#302F2F"/>
								<stop  offset="0.9208" style="stop-color:#262526"/>
								<stop  offset="1" style="stop-color:#222222"/>
							</linearGradient>
							<path style="fill:url(#SVGID_00000080893437351670381530000017853631524622590607_);" d="M53.1,66.4
								c-0.2-0.1,0.1-1.1,0.1-1.1s0.8-1.5,1.8-3.4c1.1-1.8,2-3.3,2-3.3s0.6-0.7,0.8-0.6L53.1,66.4z"/>
							<path class="st5" d="M57.9,58.2c-0.1,0-1.2,1.8-2.5,4.1c-1.3,2.3-2.3,4.2-2.3,4.2c0.1,0,1.2-1.8,2.5-4.1
								C56.9,60.1,58,58.2,57.9,58.2z"/>
						</g>
						<g>
							
								<linearGradient id="SVGID_00000094581040416182268930000015346828856747807367_" gradientUnits="userSpaceOnUse" x1="-451.0399" y1="58.8149" x2="-446.528" y2="66.3409" gradientTransform="matrix(-1 0 0 1 -392.9199 0)">
								<stop  offset="0" style="stop-color:#C7C7C7"/>
								<stop  offset="1.917649e-03" style="stop-color:#CBCBCB"/>
								<stop  offset="1.392989e-02" style="stop-color:#E2E2E2"/>
								<stop  offset="2.417274e-02" style="stop-color:#F0F0F0"/>
								<stop  offset="3.137250e-02" style="stop-color:#F5F5F5"/>
								<stop  offset="4.433613e-02" style="stop-color:#F3F3F3"/>
								<stop  offset="5.264782e-02" style="stop-color:#EDEDEC"/>
								<stop  offset="5.965091e-02" style="stop-color:#E2E2E2"/>
								<stop  offset="6.589496e-02" style="stop-color:#D2D2D2"/>
								<stop  offset="6.666670e-02" style="stop-color:#D0D0D0"/>
								<stop  offset="9.803919e-02" style="stop-color:#C7C7C7"/>
								<stop  offset="0.1034" style="stop-color:#D8D8D8"/>
								<stop  offset="0.1094" style="stop-color:#E6E6E6"/>
								<stop  offset="0.1137" style="stop-color:#EBEBEA"/>
								<stop  offset="0.1594" style="stop-color:#F2F2F2"/>
								<stop  offset="0.2196" style="stop-color:#F8F8F8"/>
								<stop  offset="0.2549" style="stop-color:#F5F5F5"/>
								<stop  offset="0.2823" style="stop-color:#F3F3F3"/>
								<stop  offset="0.2998" style="stop-color:#EDEDEC"/>
								<stop  offset="0.3146" style="stop-color:#E2E2E2"/>
								<stop  offset="0.3278" style="stop-color:#D2D2D2"/>
								<stop  offset="0.3294" style="stop-color:#D0D0D0"/>
								<stop  offset="0.3647" style="stop-color:#A5A4A4"/>
								<stop  offset="0.5255" style="stop-color:#969696"/>
								<stop  offset="0.5695" style="stop-color:#989898"/>
								<stop  offset="0.5939" style="stop-color:#9F9F9E"/>
								<stop  offset="0.6135" style="stop-color:#ABAAAA"/>
								<stop  offset="0.6306" style="stop-color:#BABABA"/>
								<stop  offset="0.646" style="stop-color:#CECECE"/>
								<stop  offset="0.66" style="stop-color:#E5E5E5"/>
								<stop  offset="0.6706" style="stop-color:#FAFAFA"/>
								<stop  offset="0.7961" style="stop-color:#FAFAFA"/>
								<stop  offset="0.8022" style="stop-color:#F5F4F4"/>
								<stop  offset="0.8462" style="stop-color:#CFCFCF"/>
								<stop  offset="0.8795" style="stop-color:#B7B6B6"/>
								<stop  offset="0.898" style="stop-color:#ADADAD"/>
								<stop  offset="0.9373" style="stop-color:#A0A09F"/>
								<stop  offset="1" style="stop-color:#949493"/>
							</linearGradient>
							<path style="fill:url(#SVGID_00000094581040416182268930000015346828856747807367_);" d="M55.5,62.3c1.3-2.3,2.4-4.1,2.5-4.1
								c0.2,0.1,0.2,1.2,0.2,1.2c0-0.1-0.9,1.4-2,3.3c-1.1,1.8-1.9,3.4-1.8,3.4c0,0-0.9,0.5-1.2,0.4C53.1,66.4,54.2,64.6,55.5,62.3z
								"/>
							<path class="st7" d="M55.5,62.3c1.3-2.3,2.4-4.1,2.5-4.1c0,0,0,0,0,0C57.8,58.4,56.7,60.2,55.5,62.3
								c-1.2,2.1-2.2,3.9-2.3,4.2c0,0,0,0,0,0C53.1,66.4,54.2,64.6,55.5,62.3z"/>
							
								<linearGradient id="SVGID_00000133511381851528537460000011259944560721021585_" gradientUnits="userSpaceOnUse" x1="-451.1234" y1="62.746" x2="-447.2856" y2="62.746" gradientTransform="matrix(-1 0 0 1 -392.9199 0)">
								<stop  offset="0" style="stop-color:#F8F8F8"/>
								<stop  offset="9.995601e-02" style="stop-color:#E1E1E1"/>
								<stop  offset="0.225" style="stop-color:#C8C7C7"/>
								<stop  offset="0.3445" style="stop-color:#B5B5B4"/>
								<stop  offset="0.4547" style="stop-color:#A9A9A8"/>
								<stop  offset="0.547" style="stop-color:#A5A4A4"/>
								<stop  offset="1" style="stop-color:#949493"/>
							</linearGradient>
							<path style="fill:url(#SVGID_00000133511381851528537460000011259944560721021585_);" d="M58.2,59.4c0-0.1-0.9,1.4-2,3.3
								c-1.1,1.8-1.9,3.4-1.8,3.4c0,0,0.9-1.4,2-3.3C57.4,61,58.2,59.5,58.2,59.4z"/>
						</g>
						<path class="st7" d="M54.3,66.1c0.1-0.2,0.9-1.7,1.9-3.4c1-1.8,1.9-3.2,2-3.3c0,0.1,0,0.1,0,0.1c0-0.1-0.9,1.4-2,3.3
							C55.1,64.5,54.3,66.1,54.3,66.1C54.4,66.1,54.3,66.1,54.3,66.1z"/>
					</g>
				</g>
				<g>
					<g>
						
							<image style="overflow:visible;" width="58" height="95" xlink:href="CB7AA05C.png"  transform="matrix(0.24 0 0 0.24 35.32 43.92)">
						</image>
						<path class="st9" d="M49.2,44.3c-0.5-0.3-3.9,4.4-7.5,10.5c-3.6,6.2-5.9,11.5-5.4,11.8c0.5,0.3,3.8-4.5,7.4-10.6
							S49.7,44.6,49.2,44.3z"/>
					</g>
					
						<image style="overflow:visible;" width="71" height="104" xlink:href="CB7AA054.png"  transform="matrix(0.24 0 0 0.24 36.28 43.92)">
					</image>
				</g>
				<g>
					
						<linearGradient id="SVGID_00000060737482863417659920000013502187246136508813_" gradientUnits="userSpaceOnUse" x1="54.3356" y1="-256.9785" x2="80.4122" y2="-256.9785" gradientTransform="matrix(0.5 -0.866 -0.866 -0.5 -209.5906 -12.5712)">
						<stop  offset="0" style="stop-color:#C7C7C7"/>
						<stop  offset="1.917649e-03" style="stop-color:#CBCBCB"/>
						<stop  offset="1.392989e-02" style="stop-color:#E2E2E2"/>
						<stop  offset="2.417274e-02" style="stop-color:#F0F0F0"/>
						<stop  offset="3.137250e-02" style="stop-color:#F5F5F5"/>
						<stop  offset="4.433613e-02" style="stop-color:#F3F3F3"/>
						<stop  offset="5.264782e-02" style="stop-color:#EDEDEC"/>
						<stop  offset="5.965091e-02" style="stop-color:#E2E2E2"/>
						<stop  offset="6.589496e-02" style="stop-color:#D2D2D2"/>
						<stop  offset="6.666670e-02" style="stop-color:#D0D0D0"/>
						<stop  offset="9.803919e-02" style="stop-color:#C7C7C7"/>
						<stop  offset="0.1034" style="stop-color:#D8D8D8"/>
						<stop  offset="0.1094" style="stop-color:#E6E6E6"/>
						<stop  offset="0.1137" style="stop-color:#EBEBEA"/>
						<stop  offset="0.1594" style="stop-color:#F2F2F2"/>
						<stop  offset="0.2196" style="stop-color:#F8F8F8"/>
						<stop  offset="0.2549" style="stop-color:#F5F5F5"/>
						<stop  offset="0.2823" style="stop-color:#F3F3F3"/>
						<stop  offset="0.2998" style="stop-color:#EDEDEC"/>
						<stop  offset="0.3146" style="stop-color:#E2E2E2"/>
						<stop  offset="0.3278" style="stop-color:#D2D2D2"/>
						<stop  offset="0.3294" style="stop-color:#D0D0D0"/>
						<stop  offset="0.3647" style="stop-color:#A5A4A4"/>
						<stop  offset="0.5255" style="stop-color:#969696"/>
						<stop  offset="0.5695" style="stop-color:#989898"/>
						<stop  offset="0.5939" style="stop-color:#9F9F9E"/>
						<stop  offset="0.6135" style="stop-color:#ABAAAA"/>
						<stop  offset="0.6306" style="stop-color:#BABABA"/>
						<stop  offset="0.646" style="stop-color:#CECECE"/>
						<stop  offset="0.66" style="stop-color:#E5E5E5"/>
						<stop  offset="0.6706" style="stop-color:#FAFAFA"/>
						<stop  offset="0.7961" style="stop-color:#FAFAFA"/>
						<stop  offset="0.8022" style="stop-color:#F5F4F4"/>
						<stop  offset="0.8462" style="stop-color:#CFCFCF"/>
						<stop  offset="0.8795" style="stop-color:#B7B6B6"/>
						<stop  offset="0.898" style="stop-color:#ADADAD"/>
						<stop  offset="0.9373" style="stop-color:#A0A09F"/>
						<stop  offset="1" style="stop-color:#949493"/>
					</linearGradient>
					<path style="fill:url(#SVGID_00000060737482863417659920000013502187246136508813_);" d="M53.8,46.6l-13,22.6
						c-0.1-0.1-0.5-0.3-0.6-0.3c-0.3-0.2,2.3-5.4,5.9-11.6c3.6-6.2,6.8-11.1,7.1-10.9C53.3,46.3,53.7,46.6,53.8,46.6z"/>
					<g>
						<path class="st11" d="M47.7,58.3c0,0.1-0.1,0.2-0.2,0.3L47.7,58.3z"/>
					</g>
					
						<image style="overflow:visible;" width="61" height="95" xlink:href="CB7AA056.png"  transform="matrix(0.24 0 0 0.24 40.6 46.56)">
					</image>
					<path class="st7" d="M49.8,60.5c2.8-4.8,5.1-8.6,5.3-8.5l0,0.1C55,51.9,52.6,55.7,49.8,60.5c-2.7,4.8-4.8,8.7-4.6,8.8
						c0,0-0.1,0-0.1,0C45.1,68.8,47.2,65,49.8,60.5z"/>
					<path class="st7" d="M52.2,48.7c-0.4,0.6-0.9,1.4-1.5,2.3c-1.2,1.8-2.5,4.1-4,6.6c-2,3.5-3.8,6.8-4.8,8.9
						c-0.8,1.5-1.2,2.5-1.1,2.7c0,0,0,0-0.1,0c-0.1-0.1,0.3-1.1,1.1-2.7c1.1-2.1,2.8-5.4,4.8-8.9c1.5-2.5,2.8-4.8,4-6.6
						C51.2,50.1,51.7,49.3,52.2,48.7c0.8-1.4,1.4-2.2,1.6-2.1c0,0,0,0,0,0C53.6,46.7,53,47.5,52.2,48.7z"/>
				</g>
				<path class="st5" d="M55.1,52c-0.1-0.1-2.5,3.7-5.2,8.5c-2.7,4.8-4.9,8.7-4.7,8.8c0.2-0.2,2.5-3.7,5.2-8.5
					C53.2,56,55.1,52.2,55.1,52z"/>
				<g>
					<g>
						
							<linearGradient id="SVGID_00000166656279484267330130000003841041735939014555_" gradientUnits="userSpaceOnUse" x1="-448.7848" y1="51.6063" x2="-438.7703" y2="69.0566" gradientTransform="matrix(-1 0 0 1 -392.9199 0)">
							<stop  offset="0" style="stop-color:#222222"/>
							<stop  offset="3.147421e-02" style="stop-color:#383636"/>
							<stop  offset="6.924341e-02" style="stop-color:#525050"/>
							<stop  offset="0.1075" style="stop-color:#6A6869"/>
							<stop  offset="0.1457" style="stop-color:#7E7D7D"/>
							<stop  offset="0.1838" style="stop-color:#8D8C8D"/>
							<stop  offset="0.2218" style="stop-color:#979696"/>
							<stop  offset="0.2597" style="stop-color:#9A9A99"/>
							<stop  offset="0.307" style="stop-color:#8C8C8C"/>
							<stop  offset="0.4883" style="stop-color:#615F60"/>
							<stop  offset="0.6546" style="stop-color:#444141"/>
							<stop  offset="0.8006" style="stop-color:#302F2F"/>
							<stop  offset="0.9208" style="stop-color:#262526"/>
							<stop  offset="1" style="stop-color:#222222"/>
						</linearGradient>
						<path style="fill:url(#SVGID_00000166656279484267330130000003841041735939014555_);" d="M46.3,69.3c-0.5-0.3,0.3-2.2,0.3-2.2
							s1.6-3.2,3.9-7.1c2.2-3.9,4.2-6.9,4.2-6.9s1.2-1.4,1.7-1.2L46.3,69.3z"/>
						<path class="st5" d="M56.4,51.9c-0.1-0.1-2.5,3.8-5.3,8.6c-2.8,4.8-4.9,8.8-4.8,8.8c0.1,0.1,2.5-3.8,5.3-8.6
							C54.3,55.9,56.5,52,56.4,51.9z"/>
					</g>
					<g>
						
							<linearGradient id="SVGID_00000063602214341066223760000016363605829897996177_" gradientUnits="userSpaceOnUse" x1="-449.736" y1="53.2401" x2="-440.2157" y2="69.1198" gradientTransform="matrix(-1 0 0 1 -392.9199 0)">
							<stop  offset="2.803750e-02" style="stop-color:#222222"/>
							<stop  offset="3.683066e-02" style="stop-color:#282728"/>
							<stop  offset="9.440057e-02" style="stop-color:#514F4F"/>
							<stop  offset="0.1469" style="stop-color:#787676"/>
							<stop  offset="0.1928" style="stop-color:#989697"/>
							<stop  offset="0.23" style="stop-color:#ADADAD"/>
							<stop  offset="0.2541" style="stop-color:#B5B5B5"/>
							<stop  offset="0.3812" style="stop-color:#A7A7A7"/>
							<stop  offset="0.4779" style="stop-color:#9A9A99"/>
							<stop  offset="0.5113" style="stop-color:#8C8C8C"/>
							<stop  offset="0.6391" style="stop-color:#615F60"/>
							<stop  offset="0.7564" style="stop-color:#444141"/>
							<stop  offset="0.8594" style="stop-color:#302F2F"/>
							<stop  offset="0.9441" style="stop-color:#262526"/>
							<stop  offset="1" style="stop-color:#222222"/>
						</linearGradient>
						<path style="fill:url(#SVGID_00000063602214341066223760000016363605829897996177_);" d="M51.2,60.5c2.8-4.8,5.1-8.7,5.3-8.6
							c0.5,0.3,0.5,2.6,0.5,2.6c0-0.1-2,3-4.2,6.9c-2.2,3.9-4,7.2-3.9,7.1c0,0-2,1.1-2.5,0.8C46.3,69.3,48.5,65.4,51.2,60.5z"/>
						<path class="st7" d="M51.2,60.5c2.8-4.8,5.1-8.7,5.3-8.6c0,0,0,0,0,0C56.2,52.4,53.9,56.1,51.2,60.5c-2.5,4.5-4.5,8.2-4.8,8.9
							c0,0,0,0,0,0C46.3,69.3,48.5,65.4,51.2,60.5z"/>
						<path class="st5" d="M57,54.5c0-0.1-2,3-4.2,6.9c-2.2,3.9-4,7.2-3.9,7.1c0.1-0.1,2-3,4.2-6.9C55.4,57.8,57,54.6,57,54.5z"/>
					</g>
					<path class="st7" d="M48.7,68.6c0.2-0.5,1.9-3.6,4-7.2c2.1-3.7,4.1-6.8,4.3-7.1c0,0.1,0,0.2,0,0.2c0-0.1-2,3-4.2,6.9
						c-2.2,3.9-4,7.2-3.9,7.1C48.9,68.5,48.8,68.6,48.7,68.6z"/>
				</g>
			</g>
		</g>
		
			<linearGradient id="SVGID_00000057829635173523987190000005511013634211162047_" gradientUnits="userSpaceOnUse" x1="-457.2" y1="31.7509" x2="-442.4307" y2="68.8581" gradientTransform="matrix(-1 0 0 1 -392.9199 0)">
			<stop  offset="0" style="stop-color:#222222"/>
			<stop  offset="1.181723e-02" style="stop-color:#282728"/>
			<stop  offset="8.918605e-02" style="stop-color:#514F4F"/>
			<stop  offset="0.1598" style="stop-color:#787676"/>
			<stop  offset="0.2214" style="stop-color:#989697"/>
			<stop  offset="0.2715" style="stop-color:#ADADAD"/>
			<stop  offset="0.3039" style="stop-color:#B5B5B5"/>
			<stop  offset="0.4654" style="stop-color:#A7A7A7"/>
			<stop  offset="0.5884" style="stop-color:#9A9A99"/>
			<stop  offset="0.6147" style="stop-color:#8C8C8C"/>
			<stop  offset="0.7155" style="stop-color:#615F60"/>
			<stop  offset="0.808" style="stop-color:#444141"/>
			<stop  offset="0.8892" style="stop-color:#302F2F"/>
			<stop  offset="0.9559" style="stop-color:#262526"/>
			<stop  offset="1" style="stop-color:#222222"/>
		</linearGradient>
		<path style="fill:url(#SVGID_00000057829635173523987190000005511013634211162047_);" d="M58.9,51.9c0.9-1.6,1.5-3.3,1.8-5.1
			c0.5-3.2,0.6-6.5,0.7-10c0-1-0.1-6-0.1-7l1.2-0.1c0,1,0.1,6,0.1,7c0,3.6-0.4,7.3-1.1,10.8c-0.3,1.7-0.9,3.3-1.8,4.8L50.7,68
			c-0.2,0.4-0.8,0.6-1.2,0.3l0,0L58.9,51.9z"/>
	</g>
	<g>
		
			<linearGradient id="SVGID_00000058575570935605788190000006098727154426440834_" gradientUnits="userSpaceOnUse" x1="6.7506" y1="28.6916" x2="6.3719" y2="30.5856">
			<stop  offset="0" style="stop-color:#FAFAFA"/>
			<stop  offset="0.4775" style="stop-color:#F3F2F2"/>
			<stop  offset="1" style="stop-color:#E6E6E6"/>
		</linearGradient>
		<path style="fill:url(#SVGID_00000058575570935605788190000006098727154426440834_);" d="M7.9,26.9H6.3c-0.3,1-0.5,2.6-0.6,3.6
			h1.1c0.1,0,0.2-0.1,0.3-0.2C7.3,29.3,7.6,27.8,7.9,26.9z"/>
		<path class="st27" d="M34,6c13.3,0,24.5,8.9,27.6,20.9h0.6C58.9,14.6,47.5,5.6,34,5.6c-13.6,0-25,9.1-28.2,21.3h0.6
			C9.5,14.9,20.7,6,34,6z"/>
		
			<linearGradient id="SVGID_00000023262295047415092860000005552615137969349290_" gradientUnits="userSpaceOnUse" x1="60.5749" y1="28.8012" x2="61.9189" y2="28.5094">
			<stop  offset="0" style="stop-color:#C7C7C7"/>
			<stop  offset="1.102185e-02" style="stop-color:#CBCBCB"/>
			<stop  offset="8.006317e-02" style="stop-color:#E2E2E2"/>
			<stop  offset="0.1389" style="stop-color:#F0F0F0"/>
			<stop  offset="0.1803" style="stop-color:#F5F5F5"/>
			<stop  offset="0.4028" style="stop-color:#F3F3F3"/>
			<stop  offset="0.5455" style="stop-color:#EDEDEC"/>
			<stop  offset="0.6658" style="stop-color:#E2E2E2"/>
			<stop  offset="0.7736" style="stop-color:#D2D2D2"/>
			<stop  offset="0.8731" style="stop-color:#BDBDBD"/>
			<stop  offset="0.9652" style="stop-color:#A2A2A2"/>
			<stop  offset="1" style="stop-color:#969696"/>
		</linearGradient>
		<path style="fill:url(#SVGID_00000023262295047415092860000005552615137969349290_);" d="M60,26.9c0.3,0.9,0.6,2.5,0.8,3.4
			c0,0.1,0.1,0.2,0.3,0.2h1.1c-0.1-1-0.4-2.7-0.6-3.6H60z"/>
		
			<linearGradient id="SVGID_00000018917509742431637080000015457320931432672690_" gradientUnits="userSpaceOnUse" x1="60.6282" y1="28.8211" x2="62.4548" y2="28.4246">
			<stop  offset="0" style="stop-color:#C7C7C7"/>
			<stop  offset="1.102185e-02" style="stop-color:#CBCBCB"/>
			<stop  offset="8.006317e-02" style="stop-color:#E2E2E2"/>
			<stop  offset="0.1389" style="stop-color:#F0F0F0"/>
			<stop  offset="0.1803" style="stop-color:#F5F5F5"/>
			<stop  offset="0.4028" style="stop-color:#F3F3F3"/>
			<stop  offset="0.5455" style="stop-color:#EDEDEC"/>
			<stop  offset="0.6658" style="stop-color:#E2E2E2"/>
			<stop  offset="0.7736" style="stop-color:#D2D2D2"/>
			<stop  offset="0.8731" style="stop-color:#BDBDBD"/>
			<stop  offset="0.9652" style="stop-color:#A2A2A2"/>
			<stop  offset="1" style="stop-color:#969696"/>
		</linearGradient>
		<path style="fill:url(#SVGID_00000018917509742431637080000015457320931432672690_);" d="M62.1,26.9h-0.6H60
			c0.3,0.9,0.6,2.5,0.8,3.4c0,0.1,0.1,0.2,0.3,0.2h1.1h0.3c0.2,0,0.3-0.1,0.3-0.3C62.6,29.3,62.1,26.9,62.1,26.9z"/>
		
			<linearGradient id="SVGID_00000119089364750946220670000009203704508988744099_" gradientUnits="userSpaceOnUse" x1="61.5776" y1="28.6863" x2="62.72" y2="28.6863">
			<stop  offset="0" style="stop-color:#FAFAFA"/>
			<stop  offset="0.2266" style="stop-color:#F3F2F2"/>
			<stop  offset="0.6153" style="stop-color:#DEDEDE"/>
			<stop  offset="1" style="stop-color:#C5C5C4"/>
		</linearGradient>
		<path style="fill:url(#SVGID_00000119089364750946220670000009203704508988744099_);" d="M62.2,30.5h0.3c0.2,0,0.3-0.1,0.3-0.3
			c-0.1-0.9-0.6-3.3-0.6-3.3h-0.6C61.6,26.9,62,29.5,62.2,30.5z"/>
		
			<linearGradient id="SVGID_00000052805545743517828450000016137646081843463066_" gradientUnits="userSpaceOnUse" x1="7.3822" y1="28.8281" x2="5.3577" y2="28.4225">
			<stop  offset="0" style="stop-color:#C7C7C7"/>
			<stop  offset="1.804708e-02" style="stop-color:#CBCBCB"/>
			<stop  offset="0.1311" style="stop-color:#E2E2E2"/>
			<stop  offset="0.2275" style="stop-color:#F0F0F0"/>
			<stop  offset="0.2952" style="stop-color:#F5F5F5"/>
			<stop  offset="0.4865" style="stop-color:#F3F3F3"/>
			<stop  offset="0.6092" style="stop-color:#EDEDEC"/>
			<stop  offset="0.7126" style="stop-color:#E2E2E2"/>
			<stop  offset="0.8053" style="stop-color:#D2D2D2"/>
			<stop  offset="0.8909" style="stop-color:#BDBDBD"/>
			<stop  offset="0.9701" style="stop-color:#A2A2A2"/>
			<stop  offset="1" style="stop-color:#969696"/>
		</linearGradient>
		<path style="fill:url(#SVGID_00000052805545743517828450000016137646081843463066_);" d="M6.3,26.9H5.8c0,0-0.4,2.4-0.6,3.3
			c0,0.2,0.1,0.3,0.3,0.3h0.3h1.1c0.1,0,0.2-0.1,0.3-0.2c0.2-1,0.4-2.5,0.8-3.4H6.3z"/>
		
			<image style="overflow:visible;" width="231" height="88" xlink:href="CB7AA052.png"  transform="matrix(0.24 0 0 0.24 6.28 5.76)">
		</image>
		
			<linearGradient id="SVGID_00000038412951832684425300000009762145273321204610_" gradientUnits="userSpaceOnUse" x1="5.7736" y1="30.5066" x2="5.7736" y2="26.866">
			<stop  offset="0" style="stop-color:#E6E6E6"/>
			<stop  offset="0.2613" style="stop-color:#F3F2F2"/>
			<stop  offset="0.5" style="stop-color:#FAFAFA"/>
		</linearGradient>
		<path style="fill:url(#SVGID_00000038412951832684425300000009762145273321204610_);" d="M6.3,26.9H5.8c0,0-0.4,2.4-0.6,3.3
			c0,0.2,0.1,0.3,0.3,0.3h0.3C5.9,29.5,6.3,26.9,6.3,26.9z"/>
	</g>
</g>
<g>
	<text transform="matrix(1 0 0 1 66.3682 31.4543)"><tspan x="0" y="0" class="st33 st34 st35">Site de</tspan><tspan x="0" y="26.4" class="st33 st34 st35">Musica</tspan></text>
</g>
</svg>
